<!DOCTYPE svg PUBLIC "-//W3C//DTD SVG 20010904//EN" "http://www.w3.org/TR/2001/REC-SVG-20010904/DTD/svg10.dtd">
<svg version="1.0" xmlns="http://www.w3.org/2000/svg" width="596px" height="296px" viewBox="0 0 5960 2960" preserveAspectRatio="xMidYMid meet">
<g id="layer101" fill="#ffffff" stroke="none">
 <path d="M1998 2330 c-449 -3 -820 -8 -824 -12 -4 -5 31 -8 77 -8 491 2 2169 -10 2182 -16 9 -3 17 -14 17 -25 0 -27 -29 -30 -377 -40 -714 -23 -1041 -40 -1125 -60 -32 -7 -58 -17 -58 -20 0 -4 19 -9 43 -12 23 -3 59 -9 81 -15 46 -12 1874 -11 1894 2 7 4 127 9 268 12 141 2 259 6 264 9 5 3 94 8 197 11 104 3 211 9 238 14 52 10 3 9 -600 -12 -389 -13 -1564 -21 -1604 -11 -75 19 -28 28 209 40 135 7 325 15 422 17 97 3 194 10 215 15 21 6 67 11 103 11 61 0 228 25 238 35 3 2 -1 11 -8 20 -9 11 -32 15 -81 15 -37 0 -80 5 -96 12 -40 17 -691 24 -1675 18z"/>
 <path d="M435 2270 c4 -14 18 -39 31 -57 13 -17 24 -36 24 -42 0 -6 5 -11 10 -11 6 0 10 -7 10 -15 0 -19 52 -94 65 -93 25 1 35 -3 35 -16 0 -8 8 -21 18 -28 10 -7 27 -26 38 -43 10 -16 27 -39 36 -49 10 -11 18 -24 18 -29 0 -6 11 -25 25 -43 14 -18 25 -37 25 -43 0 -6 3 -11 8 -11 4 0 12 -10 18 -23 20 -41 49 -92 55 -97 3 -3 14 -18 23 -35 9 -16 28 -48 41 -70 14 -22 28 -47 32 -55 4 -8 9 -17 12 -20 10 -8 61 -89 61 -96 0 -3 16 -24 35 -47 19 -22 35 -44 35 -49 0 -5 11 -21 25 -36 14 -15 25 -31 25 -37 0 -6 9 -17 20 -25 11 -8 20 -18 20 -22 0 -4 8 -16 18 -26 9 -10 28 -33 42 -52 14 -18 32 -40 41 -49 9 -9 30 -36 47 -61 17 -25 42 -57 56 -72 29 -30 33 -48 13 -48 -13 0 -128 119 -179 184 -13 16 -32 38 -43 50 -11 12 -34 39 -50 61 -17 22 -42 54 -57 70 -16 17 -28 33 -28 38 0 4 -8 15 -18 25 -20 20 -89 113 -117 157 -10 17 -23 35 -29 42 -29 33 -36 43 -36 53 0 5 -4 10 -10 10 -5 0 -10 5 -10 11 0 6 -11 25 -25 43 -14 18 -25 38 -25 44 0 7 -3 12 -8 12 -7 0 -25 30 -38 63 -3 9 -10 17 -15 17 -5 0 -9 9 -9 20 0 11 -4 20 -9 20 -5 0 -11 8 -15 18 -3 9 -19 41 -35 71 l-29 54 -4 -69 c-2 -46 1 -73 10 -82 6 -7 12 -35 12 -62 0 -27 5 -52 10 -55 6 -3 10 -17 10 -30 0 -13 11 -45 25 -71 14 -26 25 -53 25 -60 0 -8 3 -14 8 -14 4 0 14 -15 21 -32 16 -36 90 -141 103 -146 4 -2 8 -9 8 -14 0 -13 370 -382 509 -508 52 -47 127 -118 168 -157 40 -40 77 -73 81 -73 4 0 38 -32 74 -70 37 -39 68 -70 70 -70 6 0 -4 145 -11 155 -4 6 -8 35 -10 65 -1 30 -6 59 -12 64 -5 6 -9 24 -9 40 -1 17 -7 42 -15 56 -8 14 -14 39 -15 57 0 17 -4 35 -10 38 -5 3 -10 19 -10 36 0 16 -4 29 -10 29 -5 0 -10 9 -10 20 0 11 -12 45 -26 77 -42 95 -118 248 -125 253 -3 3 -14 20 -23 38 -9 17 -20 32 -24 32 -4 0 -13 13 -20 28 -20 47 -322 345 -366 361 -5 2 -22 15 -36 28 -14 13 -37 29 -52 36 -16 6 -28 15 -28 19 0 5 -7 8 -15 8 -8 0 -15 4 -15 10 0 5 -17 17 -37 27 -21 9 -40 19 -43 22 -14 16 -139 81 -155 81 -5 0 -19 12 -30 27 -11 14 -25 31 -30 37 -6 6 -44 56 -85 111 -91 123 -94 127 -85 95z"/>
 <path d="M4956 2180 c6 -6 42 -7 99 -1 l90 8 -99 2 c-67 1 -97 -2 -90 -9z"/>
 <path d="M3707 2080 c-43 -13 -57 -29 -57 -66 0 -46 36 -69 108 -69 40 0 57 5 67 18 12 16 14 15 24 -14 6 -18 10 -34 8 -35 -1 -2 -22 2 -45 8 -66 16 -130 2 -170 -38 -33 -33 -34 -36 -30 -99 5 -76 22 -105 90 -151 81 -55 231 -69 307 -29 26 13 31 22 31 50 0 24 -6 37 -19 45 -22 11 -61 13 -86 4 -15 -6 -15 -8 0 -24 52 -57 -51 -79 -120 -26 -38 29 -74 94 -75 133 -1 99 102 109 156 17 25 -42 28 -44 75 -44 29 0 49 4 49 11 0 6 -16 61 -37 121 -27 83 -45 119 -69 144 -49 48 -133 66 -207 44z m99 -51 c16 -17 16 -22 4 -29 -42 -27 -98 1 -70 35 17 21 44 19 66 -6z"/>
 <path d="M1310 2037 c-50 -25 -30 -123 47 -224 21 -29 22 -33 6 -33 -24 0 -49 17 -40 26 14 14 -17 34 -54 34 -42 0 -54 -11 -45 -44 7 -30 47 -47 126 -54 61 -5 68 -8 119 -54 68 -62 139 -98 206 -105 90 -9 90 -13 21 210 l-60 197 -63 0 c-35 0 -63 -1 -63 -2 0 -2 14 -46 30 -98 16 -52 28 -96 26 -98 -2 -1 -23 -4 -47 -5 l-44 -2 -43 86 c-32 63 -44 99 -44 133 -1 43 -3 46 -27 46 -14 0 -37 -6 -51 -13z m284 -324 c26 -76 20 -81 -34 -28 -55 54 -58 61 -32 68 43 11 50 7 66 -40z"/>
 <path d="M1720 1978 c0 -7 16 -70 37 -140 l37 -128 63 0 c35 0 63 4 63 10 0 6 9 6 26 0 59 -23 124 3 108 44 -15 38 -75 48 -97 15 -13 -17 -19 -19 -36 -10 -15 8 -30 41 -52 116 l-32 105 -59 0 c-40 0 -58 -4 -58 -12z"/>
 <path d="M2080 1978 c-35 -19 -37 -66 -9 -157 17 -53 20 -76 12 -78 -15 -5 -5 -33 12 -33 6 0 16 -14 21 -32 10 -36 32 -45 101 -47 42 -1 42 0 33 25 -15 38 -12 54 10 54 13 0 18 5 14 15 -4 8 -16 15 -29 15 -20 0 -26 10 -44 69 -11 37 -22 79 -23 92 -4 33 23 35 60 4 16 -14 34 -25 38 -25 5 0 26 -58 48 -129 l38 -129 37 -6 c52 -8 91 -7 91 3 0 5 -7 28 -15 51 -8 23 -15 44 -15 47 0 2 20 1 44 -2 55 -9 113 9 121 36 4 11 -3 51 -15 90 -21 70 -20 89 5 89 32 0 72 -59 95 -139 l23 -81 64 0 c57 0 64 2 59 18 -60 191 -62 222 -13 190 17 -12 31 -41 51 -112 l29 -96 64 0 c48 0 64 3 60 13 -28 74 -57 191 -49 199 14 14 50 0 62 -23 6 -10 16 -19 23 -19 7 0 23 -37 36 -85 l24 -85 64 0 c34 0 63 4 63 10 0 6 9 6 26 0 63 -24 128 5 105 48 -20 37 -72 43 -94 11 -13 -17 -19 -19 -36 -10 -15 8 -30 41 -52 116 l-32 105 -59 0 c-45 0 -58 -3 -58 -15 0 -18 4 -18 -45 0 -53 19 -90 18 -131 -1 -29 -14 -37 -14 -50 -3 -24 20 -129 18 -150 -3 -15 -15 -19 -15 -39 -2 -32 21 -109 29 -145 14 -40 -17 -46 -47 -25 -121 17 -64 15 -89 -9 -89 -23 0 -43 35 -72 131 l-27 89 -59 0 c-52 0 -58 -2 -58 -20 0 -20 -1 -20 -31 -5 -42 22 -119 29 -149 13z"/>
 <path d="M4030 1978 c0 -7 16 -70 37 -140 l37 -128 63 0 c35 0 63 4 63 10 0 6 9 6 26 0 59 -23 124 3 108 44 -15 38 -75 48 -97 15 -13 -17 -19 -19 -36 -10 -15 8 -30 41 -52 116 l-32 105 -59 0 c-40 0 -58 -4 -58 -12z"/>
 <path d="M4400 1977 c-13 -7 -31 -24 -39 -39 -13 -23 -14 -34 -3 -74 16 -59 42 -96 90 -126 32 -20 52 -23 164 -26 92 -2 128 0 128 9 0 6 -12 49 -26 96 -35 115 -22 141 42 85 23 -21 36 -47 54 -109 l24 -83 110 1 c126 1 172 11 181 40 4 11 -3 52 -15 91 -14 45 -18 74 -12 80 12 12 52 1 52 -13 0 -5 10 -13 23 -18 28 -11 62 -107 52 -152 -5 -22 -3 -29 8 -29 9 0 20 -15 27 -34 9 -28 17 -34 48 -40 20 -3 49 -6 64 -6 25 0 27 2 18 26 -15 39 -12 54 11 54 29 0 18 24 -12 28 -22 3 -28 13 -47 77 -28 94 -28 113 -1 117 l21 3 -20 25 c-17 21 -29 25 -70 25 -34 0 -56 -6 -70 -18 -19 -17 -22 -17 -44 -3 -35 23 -111 31 -148 16 -40 -17 -46 -47 -25 -121 17 -64 15 -89 -9 -89 -23 0 -43 35 -72 131 l-27 89 -59 0 c-44 0 -58 -4 -58 -14 0 -13 -6 -13 -46 1 -50 17 -109 12 -132 -10 -11 -12 -19 -11 -50 4 -42 22 -96 24 -132 6z m140 -57 c21 -11 66 -142 55 -160 -30 -49 -128 79 -111 146 7 26 25 30 56 14z"/>
 </g>

</svg>