<!DOCTYPE svg PUBLIC "-//W3C//DTD SVG 20010904//EN" "http://www.w3.org/TR/2001/REC-SVG-20010904/DTD/svg10.dtd">
<svg version="1.0" xmlns="http://www.w3.org/2000/svg" width="501px" height="341px" viewBox="0 0 5010 3410" preserveAspectRatio="xMidYMid meet">
<g id="layer101" fill="#000002" stroke="none">
<path d="M0 1705 l0 -1705 2505 0 2505 0 0 1705 0 1705 -2505 0 -2505 0 0 -1705z"/>
</g>
<g id="layer102" fill="#010130" stroke="none">
<path d="M800 3400 c-63 -4 -194 -8 -291 -9 -97 0 -231 -4 -297 -8 -119 -6 -122 -7 -122 -30 l0 -23 1233 -1 c677 -1 1246 -5 1262 -9 23 -6 14 -8 -40 -9 -38 -1 -162 -7 -275 -12 -113 -6 -290 -14 -395 -19 -344 -15 -455 -35 -455 -80 0 -27 53 -50 114 -50 25 0 48 -4 51 -10 4 -6 258 -10 718 -10 392 0 743 0 782 0 66 0 68 -1 47 -16 -29 -20 -30 -74 -2 -99 25 -22 127 -33 157 -16 17 9 22 7 25 -7 4 -16 -2 -17 -65 -14 -55 4 -78 0 -104 -13 -69 -38 -93 -127 -54 -203 40 -77 120 -123 228 -130 138 -9 203 15 203 77 0 38 -24 56 -76 56 -58 0 -73 -16 -43 -46 21 -21 21 -23 4 -36 -11 -7 -26 -13 -35 -13 -26 0 -94 49 -119 86 -31 44 -40 124 -17 143 39 33 104 3 133 -60 18 -38 19 -38 76 -39 70 0 70 -3 21 143 -28 83 -45 117 -73 147 l-36 38 50 6 c27 3 142 10 255 16 113 5 302 14 420 21 118 6 283 14 365 18 83 5 243 14 358 21 l207 14 0 29 0 29 -162 -6 c-90 -3 -212 -8 -273 -11 -567 -26 -1670 -50 -1600 -35 22 5 74 9 115 10 111 2 319 26 365 42 28 10 41 22 43 37 7 45 -19 56 -173 73 -105 12 -2351 18 -2525 8z m2469 -324 c10 -12 8 -17 -8 -25 -22 -12 -51 -5 -51 13 0 28 39 36 59 12z"/>
<path d="M0 3330 c0 -18 17 -58 40 -96 22 -36 40 -69 40 -72 0 -3 14 -27 31 -54 24 -36 36 -47 49 -43 13 4 25 -4 40 -25 21 -29 21 -30 2 -30 -11 0 -22 -9 -25 -21 -8 -32 0 -204 12 -244 6 -19 16 -52 22 -72 16 -55 109 -243 120 -243 5 0 9 -5 9 -10 0 -6 4 -16 10 -23 83 -103 137 -160 296 -317 203 -199 309 -299 449 -425 49 -44 113 -104 143 -132 l54 -53 -78 -1 c-113 -1 -189 -12 -187 -26 2 -7 -26 -17 -73 -24 -47 -8 -73 -17 -70 -24 2 -7 -15 -17 -41 -23 -24 -7 -41 -16 -38 -21 3 -5 -7 -11 -22 -13 -19 -2 -29 -10 -31 -23 -5 -26 -30 -45 -59 -45 -14 0 -23 -6 -23 -15 0 -9 -7 -18 -15 -21 -8 -4 -15 -12 -15 -20 0 -8 -9 -19 -20 -26 -11 -7 -20 -17 -20 -23 0 -6 -9 -16 -20 -23 -11 -7 -20 -18 -20 -25 0 -8 -12 -19 -26 -25 -14 -7 -23 -16 -20 -21 3 -4 -3 -16 -14 -26 -11 -10 -22 -33 -26 -51 -3 -19 -10 -34 -15 -34 -5 0 -9 -9 -9 -19 0 -11 -5 -23 -10 -26 -6 -3 -10 -18 -10 -32 0 -14 -7 -39 -15 -56 -25 -56 -32 -111 -27 -218 4 -93 7 -107 29 -128 13 -13 26 -35 29 -48 4 -12 10 -23 15 -23 5 0 14 -11 19 -25 5 -14 22 -31 37 -38 16 -7 29 -19 31 -27 2 -8 8 -17 13 -18 5 -2 9 -10 9 -17 0 -8 19 -20 43 -26 23 -7 47 -18 53 -26 7 -8 21 -16 33 -18 29 -5 42 -15 36 -25 -11 -18 46 -22 347 -23 291 -2 379 4 348 23 -8 5 18 10 66 14 175 14 195 18 190 31 -4 12 78 35 128 35 20 0 46 38 46 66 0 6 18 14 40 18 24 4 40 12 40 20 0 8 15 17 33 20 18 3 40 15 50 26 9 11 23 20 31 20 19 0 37 24 40 56 2 21 11 30 37 39 19 6 33 17 31 23 -1 7 10 17 25 23 25 8 53 47 53 72 0 5 15 24 33 41 47 45 60 96 60 233 -1 123 -2 138 -18 163 -6 8 -15 24 -20 35 -6 11 -17 20 -25 20 -8 1 -14 7 -12 14 3 14 -62 81 -79 81 -6 0 -9 6 -6 14 6 16 -32 36 -70 36 -21 0 -24 2 -13 15 10 12 9 15 -4 15 -9 0 -28 11 -41 26 -19 21 -35 26 -94 31 -60 5 -73 10 -86 29 -12 19 -25 24 -63 25 -36 1 -41 3 -22 8 l25 7 -25 7 c-14 4 -112 10 -217 13 l-193 7 0 63 c0 35 -4 65 -9 68 -5 3 -11 29 -14 58 -14 119 -76 352 -121 453 -8 17 -18 41 -24 55 -76 199 -234 406 -472 619 -35 31 -35 31 -5 17 17 -8 57 -16 90 -17 57 -3 63 -6 117 -55 85 -77 146 -104 236 -104 55 0 73 3 70 13 -3 6 -31 99 -63 205 l-58 192 -74 0 c-40 0 -73 -1 -73 -3 0 -2 13 -43 30 -92 16 -49 28 -90 26 -92 -2 -2 -17 -8 -34 -13 -29 -8 -33 -6 -52 24 -39 64 -73 152 -74 193 l-1 43 -40 0 c-87 0 -107 -53 -57 -153 l28 -55 -31 5 c-16 2 -43 0 -59 -6 -25 -10 -28 -15 -22 -42 l6 -31 -28 22 c-15 11 -45 33 -67 48 -22 15 -41 30 -43 35 -2 4 -9 7 -15 7 -6 0 -18 6 -26 14 -9 8 -32 23 -51 34 -19 11 -64 36 -98 56 -35 20 -69 36 -75 36 -19 1 -40 21 -82 80 -22 30 -42 57 -45 60 -3 3 -18 23 -35 45 -16 22 -35 46 -42 53 -7 8 -18 22 -23 33 -6 11 -21 19 -35 19 -21 0 -25 -5 -25 -30z m404 -604 c70 -115 125 -210 123 -213 -6 -5 -127 181 -206 317 -76 128 -81 138 -81 146 0 15 45 -53 164 -250z m422 116 c-9 -8 -26 10 -26 26 1 15 2 15 15 -2 8 -11 13 -21 11 -24z m232 -84 c6 -23 9 -44 7 -46 -5 -5 -54 47 -66 71 -8 14 -5 17 19 17 26 0 31 -5 40 -42z"/>
<path d="M3310 1457 c-19 -6 -37 -14 -40 -18 -3 -3 -37 -12 -77 -19 -42 -7 -72 -16 -70 -23 2 -13 -42 -24 -105 -26 -47 -1 -48 -1 -54 -40 l-6 -39 -60 -7 c-47 -6 -62 -11 -65 -26 -3 -10 -14 -21 -24 -24 -10 -4 -19 -13 -19 -21 0 -8 -13 -20 -29 -25 -16 -6 -32 -18 -35 -27 -3 -9 -14 -31 -25 -48 -22 -37 -40 -117 -43 -194 -2 -55 19 -150 34 -150 4 0 8 -9 8 -19 0 -11 10 -27 22 -35 12 -9 19 -16 14 -16 -5 0 -2 -8 6 -17 8 -10 18 -25 22 -33 11 -23 31 -57 43 -71 6 -8 11 -18 11 -24 0 -5 17 -14 37 -19 22 -6 34 -14 31 -22 -3 -7 2 -18 9 -24 8 -7 13 -17 12 -22 -1 -6 7 -12 18 -14 11 -1 29 -14 40 -28 12 -15 30 -26 40 -26 36 0 65 -12 65 -26 0 -7 18 -18 40 -24 22 -6 40 -17 40 -24 0 -8 20 -19 45 -25 25 -6 43 -16 40 -21 -6 -9 7 -14 78 -25 21 -3 37 -12 37 -19 0 -9 22 -16 73 -20 90 -9 114 -15 97 -26 -29 -18 76 -24 395 -25 332 0 385 4 385 29 0 8 9 16 20 19 11 3 20 12 20 20 0 10 16 17 50 21 40 5 50 10 50 26 0 10 5 22 10 25 6 3 10 15 10 26 0 14 7 19 28 19 15 0 32 4 37 8 20 15 45 72 52 119 3 26 12 53 19 60 14 14 30 170 21 205 -3 13 -14 55 -23 93 -9 39 -23 74 -30 78 -8 5 -14 25 -14 47 0 21 -4 42 -10 45 -5 3 -10 15 -10 26 0 13 -7 19 -21 19 -15 0 -19 5 -15 15 3 10 -3 17 -20 21 -14 4 -30 17 -35 31 -5 14 -18 27 -29 30 -11 3 -20 12 -20 19 0 8 -11 20 -25 26 -14 6 -25 19 -25 30 0 10 -4 18 -10 18 -5 0 -7 6 -4 13 3 9 -9 18 -36 26 -22 6 -40 18 -40 26 0 8 -9 20 -20 28 -11 8 -17 16 -14 19 7 8 -17 14 -76 22 -34 5 -48 12 -55 29 -8 17 -21 23 -58 27 -26 3 -47 10 -47 15 1 17 -102 23 -375 23 -159 0 -274 -4 -295 -11z m-3 -24 c-4 -3 -10 -3 -14 0 -3 4 0 7 7 7 7 0 10 -3 7 -7z"/>
</g>
<g id="layer103" fill="#010151" stroke="none">
<path d="M1208 1413 c-66 -3 -88 -7 -88 -17 0 -10 -19 -16 -58 -21 -60 -7 -84 -16 -83 -31 0 -5 -13 -14 -29 -19 -23 -8 -28 -13 -20 -21 9 -9 1 -13 -27 -18 -88 -15 -94 -18 -89 -32 4 -10 -4 -16 -23 -20 -16 -4 -32 -14 -36 -23 -17 -45 -33 -63 -59 -68 -16 -3 -31 -13 -33 -22 -2 -9 -14 -21 -26 -27 -12 -5 -21 -15 -20 -22 2 -6 -6 -16 -17 -22 -11 -6 -20 -19 -20 -30 0 -10 -5 -22 -10 -25 -6 -4 -8 -10 -5 -15 3 -5 1 -11 -5 -15 -5 -3 -10 -15 -10 -26 0 -10 -9 -24 -20 -31 -11 -7 -20 -23 -20 -36 0 -13 -7 -46 -16 -73 -16 -47 -16 -100 -1 -233 1 -13 13 -23 33 -28 26 -7 33 -14 39 -44 6 -36 61 -104 84 -104 6 0 10 -5 8 -12 -1 -6 17 -15 40 -20 32 -7 42 -14 45 -31 2 -18 11 -23 41 -25 23 -2 37 -8 37 -17 0 -17 141 -29 350 -30 187 0 429 17 360 25 -43 5 -42 6 30 13 110 12 145 21 145 37 0 8 16 18 37 23 26 6 35 13 31 23 -4 10 4 14 31 14 27 0 39 6 52 25 10 15 26 25 39 25 30 0 80 19 72 27 -4 3 1 12 11 19 9 7 17 18 17 26 0 7 19 18 44 23 37 9 46 17 62 52 10 22 27 43 39 46 11 3 20 12 20 21 0 10 9 16 25 16 16 0 28 7 31 18 3 9 9 26 14 37 18 45 23 60 21 70 -1 5 5 14 13 21 34 25 43 178 10 191 -7 2 -11 10 -8 17 3 7 -2 19 -10 26 -9 7 -14 16 -11 20 3 5 1 11 -5 15 -5 3 -10 15 -10 25 0 10 -9 25 -20 33 -11 8 -17 17 -14 20 3 3 -9 12 -27 20 -24 10 -38 25 -48 50 -15 38 -22 41 -113 52 -41 5 -55 11 -51 21 3 9 -9 15 -44 20 -37 4 -51 11 -59 28 -7 15 -18 21 -44 22 -122 1 -150 5 -150 17 0 11 -31 15 -127 20 -71 4 -153 6 -183 5 -30 -1 -94 -4 -142 -5z"/>
<path d="M3398 1413 c-40 -3 -58 -8 -58 -17 0 -9 -21 -16 -67 -20 -104 -11 -137 -18 -123 -26 14 -9 0 -15 -63 -26 -40 -7 -60 -23 -30 -25 10 -1 -4 -6 -32 -10 -122 -20 -126 -21 -121 -35 3 -7 -4 -16 -15 -19 -10 -4 -19 -13 -19 -22 0 -8 -13 -20 -30 -26 -16 -6 -30 -16 -30 -23 0 -6 -11 -16 -25 -22 -14 -6 -25 -18 -25 -26 0 -7 -6 -19 -14 -25 -8 -7 -22 -44 -31 -83 -13 -58 -14 -80 -4 -129 6 -33 16 -62 20 -65 5 -3 9 -14 9 -25 0 -11 7 -22 15 -25 8 -4 12 -10 9 -16 -3 -5 3 -16 15 -24 12 -8 21 -21 21 -29 0 -7 9 -17 20 -20 11 -3 20 -15 20 -26 0 -10 4 -19 10 -19 5 0 17 -17 27 -38 20 -44 29 -52 66 -52 20 0 30 -7 37 -24 6 -17 18 -26 37 -28 16 -2 28 -9 28 -17 0 -8 16 -20 35 -26 19 -7 34 -17 33 -23 -3 -11 49 -32 80 -32 15 0 17 -3 8 -14 -9 -11 -5 -15 20 -20 17 -3 46 -6 64 -6 22 0 37 -7 46 -20 11 -16 29 -22 74 -26 76 -6 94 -12 76 -23 -7 -5 42 -14 114 -21 135 -14 455 -8 497 10 13 5 17 9 8 10 -29 1 13 20 45 20 48 0 111 20 95 30 -10 6 -6 10 16 15 56 13 64 16 64 30 0 7 21 19 51 26 38 10 46 15 32 20 -16 7 -15 8 4 8 26 1 35 13 48 66 6 22 20 44 30 50 23 11 24 18 28 137 2 76 -1 90 -21 117 -13 17 -29 64 -38 108 -9 43 -22 85 -30 94 -8 9 -11 19 -8 22 4 4 -2 10 -12 13 -21 8 -84 72 -84 85 0 5 -9 14 -20 21 -11 7 -20 18 -20 25 0 7 -4 13 -10 13 -15 0 -81 70 -75 80 3 5 -16 12 -42 15 -27 3 -55 7 -63 8 -8 1 -15 9 -16 17 -1 8 -2 25 -2 38 -2 17 -8 22 -29 22 -59 0 -183 24 -183 35 0 21 -252 31 -462 18z m649 -70 c-4 -3 -10 -3 -14 0 -3 4 0 7 7 7 7 0 10 -3 7 -7z"/>
<path d="M3763 233 c9 -2 23 -2 30 0 6 3 -1 5 -18 5 -16 0 -22 -2 -12 -5z"/>
</g>
<g id="layer104" fill="#010170" stroke="none">
<path d="M1205 1360 c-38 -4 -59 -8 -45 -9 21 -3 22 -4 5 -8 -42 -9 -75 -26 -75 -38 0 -8 -21 -15 -57 -19 -116 -14 -119 -15 -134 -53 -7 -19 -26 -41 -42 -49 -15 -8 -25 -19 -22 -24 3 -5 -13 -13 -36 -16 -28 -5 -43 -13 -46 -25 -3 -10 -11 -20 -19 -23 -8 -3 -14 -15 -14 -26 0 -13 -7 -20 -20 -20 -11 0 -23 -8 -27 -17 -3 -10 -11 -24 -16 -31 -17 -22 -46 -115 -47 -149 0 -17 -4 -35 -10 -38 -16 -10 -12 -136 5 -168 8 -16 16 -44 18 -63 4 -41 9 -46 55 -60 23 -8 29 -12 17 -13 -18 -1 -17 -3 5 -14 14 -7 25 -19 25 -27 0 -16 34 -28 87 -29 44 -1 70 -10 62 -22 -3 -5 15 -14 39 -21 28 -7 43 -16 40 -24 -5 -15 114 -37 160 -29 18 3 48 1 67 -4 l35 -9 -30 -2 c-28 -2 -28 -3 10 -12 44 -10 168 -1 160 12 -9 15 29 23 138 28 98 4 127 12 95 25 -7 3 3 6 22 6 50 1 110 20 107 33 -2 13 40 25 94 27 27 1 38 6 42 20 3 11 17 22 35 26 20 4 29 11 26 20 -4 9 9 15 46 20 42 6 53 12 60 31 5 13 14 24 20 24 5 0 10 7 10 15 0 9 11 20 25 27 13 6 22 15 19 19 -2 4 9 15 26 24 16 8 29 20 27 27 -1 6 12 15 28 19 37 10 52 42 65 140 10 84 -10 215 -37 236 -8 6 -12 16 -9 22 3 5 -8 12 -25 16 -18 4 -33 15 -36 26 -3 10 -20 23 -39 29 -18 6 -33 16 -31 22 1 6 -13 16 -30 21 -18 5 -33 16 -33 22 0 9 -23 15 -62 20 -83 9 -98 13 -92 29 4 10 -15 15 -75 20 -84 7 -146 23 -106 27 11 1 -9 5 -45 9 -78 9 -318 9 -415 0z m2 -17 c-4 -3 -10 -3 -14 0 -3 4 0 7 7 7 7 0 10 -3 7 -7z"/>
<path d="M3352 1362 c-13 -4 -22 -11 -20 -17 2 -6 -27 -13 -65 -17 -78 -7 -101 -14 -93 -27 7 -10 -28 -17 -126 -27 -48 -5 -65 -10 -61 -19 2 -7 -4 -16 -15 -19 -11 -4 -22 -16 -25 -26 -3 -12 -14 -20 -25 -20 -30 0 -52 -10 -52 -25 0 -7 -13 -18 -30 -25 -16 -7 -30 -18 -30 -26 0 -7 -8 -18 -19 -23 -10 -6 -22 -23 -27 -38 -4 -16 -8 -30 -9 -33 -15 -47 -16 -72 -5 -128 15 -74 34 -118 56 -126 8 -3 13 -10 9 -16 -3 -5 3 -15 15 -22 11 -7 20 -18 20 -24 0 -7 11 -19 25 -28 14 -9 23 -21 20 -26 -3 -4 11 -14 30 -20 19 -6 35 -17 35 -24 0 -7 19 -17 43 -23 25 -5 41 -14 39 -22 -1 -7 11 -18 28 -24 17 -6 28 -17 26 -23 -2 -6 6 -16 20 -23 13 -6 24 -17 24 -26 0 -10 14 -17 40 -21 22 -4 40 -12 40 -19 0 -15 33 -22 149 -31 56 -4 89 -11 88 -18 -1 -6 34 -15 86 -21 67 -7 91 -14 98 -27 9 -15 24 -18 102 -17 93 1 180 14 127 19 l-25 2 25 8 c14 4 57 8 96 9 104 1 166 12 160 26 -3 8 15 16 50 24 29 7 53 17 51 22 -1 5 9 15 23 22 14 7 25 18 25 25 0 7 7 17 15 22 8 5 15 15 15 21 0 6 25 19 55 29 30 10 48 19 40 22 -13 5 -12 8 2 19 10 8 22 35 28 61 10 49 3 165 -11 174 -5 3 -9 14 -9 25 0 10 -4 19 -10 19 -5 0 -10 7 -10 15 0 8 -4 23 -9 33 -5 9 -15 31 -22 47 -7 17 -18 36 -23 44 -6 7 -11 20 -12 29 -2 8 -10 19 -19 24 -8 5 -13 13 -10 19 4 5 -6 14 -20 21 -14 6 -24 17 -21 24 3 7 -8 17 -25 23 -16 5 -29 17 -29 25 0 10 -18 18 -54 26 -50 10 -55 14 -62 43 -8 40 -18 47 -69 47 -69 0 -114 11 -108 25 3 9 -9 16 -37 22 -22 4 -40 12 -38 18 2 5 -10 13 -27 16 -39 9 -423 9 -453 1z"/>
</g>
<g id="layer105" fill="#313131" stroke="none">
<path d="M850 3402 c-41 -1 -82 -5 -90 -8 -8 -3 -96 -5 -194 -4 -99 0 -247 -2 -328 -6 -147 -7 -148 -7 -148 -30 l0 -24 1238 -1 c680 -1 1248 -5 1262 -9 17 -5 -7 -8 -71 -9 -53 -1 -98 -3 -101 -6 -2 -3 -78 -7 -169 -10 -460 -13 -732 -34 -793 -59 -74 -31 -24 -86 78 -86 25 0 48 -4 51 -10 4 -6 258 -10 718 -10 392 0 743 0 782 0 66 0 68 -1 47 -16 -29 -20 -30 -74 -2 -99 25 -22 127 -33 157 -16 17 9 22 7 25 -7 4 -16 -2 -17 -65 -14 -55 4 -78 0 -104 -13 -69 -38 -93 -127 -54 -203 40 -77 120 -123 228 -130 138 -9 203 15 203 77 0 38 -24 56 -76 56 -58 0 -73 -16 -43 -46 21 -21 21 -23 4 -36 -11 -7 -26 -13 -35 -13 -26 0 -94 49 -119 86 -31 44 -40 124 -17 143 39 33 104 3 133 -60 18 -38 19 -38 76 -39 70 0 70 -3 21 143 -28 83 -45 117 -73 147 l-36 38 45 6 c25 4 155 11 290 16 135 6 251 13 259 16 8 2 80 6 160 8 139 3 211 7 692 37 l205 13 2 28 2 28 -137 0 c-75 0 -162 -4 -192 -10 -31 -5 -245 -15 -476 -21 -231 -6 -423 -13 -427 -15 -4 -3 -197 -6 -430 -8 -233 -1 -405 1 -383 5 22 4 74 8 115 9 107 1 328 26 375 43 28 10 41 21 43 36 12 79 -49 82 -1428 84 -630 2 -1179 1 -1220 -1z m2419 -326 c10 -12 8 -17 -8 -25 -22 -12 -51 -5 -51 13 0 28 39 36 59 12z"/>
<path d="M2 3328 c1 -18 19 -62 40 -97 21 -34 38 -65 38 -67 0 -2 14 -26 31 -54 24 -38 35 -49 49 -45 13 4 25 -4 40 -25 21 -29 21 -30 2 -30 -16 0 -21 -10 -26 -51 -11 -79 1 -173 36 -289 13 -44 95 -210 114 -231 8 -8 14 -19 14 -23 0 -4 4 -12 10 -19 83 -103 135 -159 286 -307 210 -205 336 -324 459 -435 49 -44 121 -111 160 -148 92 -89 109 -88 113 8 2 38 -1 79 -7 90 -5 11 -12 40 -15 65 -15 120 -65 304 -118 434 -36 89 -40 100 -66 151 -95 187 -216 338 -422 524 -38 35 -41 39 -15 27 17 -8 57 -16 90 -17 57 -3 63 -6 117 -55 85 -77 146 -104 236 -104 55 0 73 3 70 13 -3 6 -31 99 -63 205 l-58 192 -74 0 c-40 0 -73 -1 -73 -3 0 -2 13 -43 30 -92 16 -49 28 -90 26 -92 -2 -2 -17 -8 -34 -13 -29 -8 -33 -6 -52 24 -39 64 -73 152 -74 193 l-1 43 -40 0 c-87 0 -107 -53 -57 -153 l28 -55 -31 5 c-16 2 -43 0 -59 -6 -25 -10 -28 -15 -22 -42 l6 -31 -28 22 c-15 11 -45 33 -67 48 -22 15 -41 30 -43 35 -2 4 -9 7 -15 7 -6 0 -18 6 -26 14 -9 8 -32 23 -51 34 -19 11 -64 36 -98 56 -35 20 -70 36 -77 36 -7 0 -22 10 -34 23 -26 28 -162 205 -186 240 -11 17 -26 27 -41 27 -21 0 -24 -4 -22 -32z m402 -602 c70 -115 125 -210 123 -213 -10 -9 -287 438 -287 463 0 15 45 -53 164 -250z m422 116 c-9 -8 -26 10 -26 26 1 15 2 15 15 -2 8 -11 13 -21 11 -24z m232 -84 c6 -23 9 -44 7 -46 -5 -5 -54 47 -66 71 -8 14 -5 17 19 17 26 0 31 -5 40 -42z"/>
<path d="M1180 3028 c0 -7 17 -69 38 -138 l38 -125 124 -2 c78 -2 128 2 137 8 16 14 17 51 1 67 -18 18 -89 15 -103 -5 -20 -27 -33 -7 -67 102 l-31 105 -69 0 c-48 0 -68 -4 -68 -12z"/>
<path d="M1533 3023 c-29 -19 -29 -57 -3 -141 12 -37 17 -74 13 -92 -4 -22 -2 -30 9 -30 9 0 20 -17 26 -39 l12 -39 68 -4 c37 -3 69 -3 71 -1 3 2 0 21 -6 43 -9 36 -8 40 8 40 11 0 19 7 19 15 0 9 -9 15 -23 15 -20 0 -26 10 -44 68 -37 117 -36 112 -15 112 10 0 27 -9 37 -20 10 -11 23 -20 30 -20 6 0 30 -60 52 -132 l40 -133 69 -7 c38 -4 71 -5 73 -2 3 2 -2 27 -11 54 l-16 50 62 0 c48 0 67 4 79 18 21 23 22 75 1 136 -21 62 -8 79 33 39 20 -20 38 -55 54 -108 l25 -80 72 -3 c40 -2 72 -1 72 1 0 3 -13 48 -30 102 -35 114 -34 105 -15 105 21 0 39 -34 66 -127 l24 -83 74 0 c54 0 72 3 68 13 -2 6 -17 52 -31 101 -30 97 -25 124 15 82 13 -14 29 -26 35 -26 6 0 22 -37 35 -82 l24 -83 124 -2 c79 -2 129 2 138 8 16 14 17 51 1 67 -18 18 -89 15 -103 -5 -20 -27 -33 -7 -67 102 l-31 105 -69 0 c-37 0 -68 -4 -68 -9 0 -6 -12 -6 -30 0 -16 6 -56 8 -87 5 -77 -8 -88 -8 -160 0 -47 5 -66 3 -83 -9 -19 -13 -26 -13 -56 -1 -51 22 -140 18 -164 -6 -25 -25 -25 -52 -1 -123 20 -56 19 -67 -6 -67 -16 0 -36 42 -64 138 l-21 72 -68 0 c-39 0 -70 -5 -72 -11 -2 -7 -12 -7 -31 0 -41 16 -128 13 -154 -6z"/>
<path d="M3490 3028 c0 -7 17 -69 38 -138 l38 -125 124 -2 c78 -2 128 2 137 8 16 14 17 51 1 67 -18 18 -89 15 -103 -5 -20 -27 -33 -7 -67 102 l-31 105 -69 0 c-48 0 -68 -4 -68 -12z"/>
<path d="M3870 3033 c-37 -14 -50 -36 -50 -85 0 -77 37 -136 107 -172 41 -21 293 -24 293 -3 0 6 -11 48 -25 92 -28 91 -30 105 -12 105 31 -1 66 -50 89 -126 l24 -79 133 -3 c114 -2 137 0 152 14 24 21 25 74 3 138 -21 61 -7 81 29 42 13 -14 29 -26 35 -26 14 0 52 -124 40 -128 -14 -6 -9 -42 7 -42 8 0 19 -17 26 -40 11 -37 15 -40 48 -40 20 0 53 -3 75 -7 34 -5 38 -4 33 13 -20 66 -20 74 3 74 29 0 20 24 -11 28 -21 2 -27 14 -48 85 -30 101 -30 103 -9 99 28 -4 31 18 7 44 -19 20 -32 24 -80 24 -47 0 -60 -4 -68 -19 -10 -19 -11 -19 -48 0 -52 27 -146 26 -173 -1 -25 -25 -25 -52 -1 -123 20 -56 19 -67 -6 -67 -16 0 -36 42 -64 138 l-21 72 -69 0 c-41 0 -69 -4 -69 -10 0 -7 -6 -7 -19 0 -31 16 -136 13 -151 -5 -11 -13 -15 -13 -33 0 -21 15 -115 20 -147 8z m150 -84 c13 -24 40 -109 40 -126 0 -24 -28 -13 -58 22 -31 34 -50 94 -37 114 11 18 44 12 55 -10z"/>
</g>
<g id="layer106" fill="#020291" stroke="none">
<path d="M1384 1306 c-4 -11 -33 -16 -122 -20 -163 -9 -187 -14 -172 -32 10 -11 9 -14 -6 -14 -28 0 -95 -25 -88 -33 4 -3 -7 -9 -22 -13 -41 -10 -46 -14 -34 -29 13 -15 7 -20 -37 -30 -18 -3 -31 -11 -30 -17 1 -6 -23 -19 -53 -29 -30 -9 -51 -17 -45 -18 5 -1 0 -8 -12 -16 -18 -13 -23 -27 -25 -77 -3 -60 -4 -63 -34 -71 -26 -8 -31 -14 -32 -40 0 -16 -4 -47 -7 -67 -7 -43 11 -151 32 -193 8 -16 12 -34 10 -41 -4 -9 19 -17 74 -26 52 -8 79 -17 79 -25 0 -8 14 -16 30 -20 17 -4 39 -16 49 -26 23 -25 124 -31 436 -29 230 1 302 8 298 28 -2 7 3 12 10 12 31 0 87 22 87 34 0 9 16 16 43 19 47 6 119 24 99 26 -23 2 -2 21 24 21 17 0 27 8 34 24 4 13 20 26 34 30 14 3 26 12 26 20 0 7 11 18 25 24 14 6 25 19 25 27 0 9 12 20 26 26 15 5 24 12 22 15 -9 8 49 64 66 64 9 0 16 3 17 8 0 4 2 16 5 27 13 64 2 195 -17 195 -11 0 -79 68 -79 80 0 4 -15 14 -34 20 -19 6 -37 16 -40 23 -3 9 -5 9 -5 0 -1 -17 -21 -17 -21 0 0 7 -19 17 -42 23 -24 5 -42 14 -41 20 1 6 -16 17 -37 24 -22 7 -40 19 -40 25 0 13 -50 19 -267 31 -74 5 -111 11 -110 18 3 18 -92 20 -99 2z"/>
<path d="M3670 1300 c10 -7 -22 -10 -100 -11 -163 -1 -315 -7 -388 -14 -50 -5 -62 -10 -58 -21 4 -9 -4 -18 -20 -24 -14 -6 -32 -17 -40 -25 -9 -8 -29 -15 -45 -15 -35 0 -72 -17 -64 -30 3 -4 -18 -13 -45 -20 -28 -7 -47 -16 -44 -22 3 -5 -3 -16 -15 -24 -12 -8 -21 -21 -21 -28 0 -8 -7 -16 -14 -19 -8 -3 -18 -23 -22 -44 -4 -21 -11 -46 -16 -56 -7 -13 -5 -24 6 -36 9 -10 16 -31 16 -48 0 -17 7 -36 15 -43 8 -7 15 -18 15 -26 0 -7 9 -18 20 -24 10 -6 17 -16 14 -23 -3 -8 11 -17 41 -25 25 -6 44 -15 43 -19 0 -5 2 -16 5 -25 4 -10 9 -25 12 -33 2 -9 16 -15 32 -15 41 0 74 -11 67 -21 -3 -5 8 -14 25 -20 20 -7 30 -17 29 -27 -2 -12 9 -19 42 -26 53 -11 59 -14 41 -25 -14 -9 48 -25 99 -26 15 0 25 -6 25 -15 0 -12 20 -16 90 -21 124 -9 429 -10 559 -2 101 6 108 8 117 30 6 16 17 23 36 24 l28 1 -25 7 -25 8 30 6 c17 3 55 11 85 17 52 10 55 12 57 42 1 17 9 38 17 47 9 9 20 40 26 67 14 63 8 206 -8 212 -7 2 -12 12 -12 22 0 10 -4 22 -10 25 -5 3 -10 15 -10 26 0 11 -7 22 -15 25 -8 4 -13 10 -10 14 2 4 -4 15 -15 25 -11 10 -17 21 -15 26 3 4 -11 13 -30 20 -19 7 -35 19 -35 26 0 6 -16 15 -36 19 -25 4 -38 14 -44 30 -6 16 -18 24 -32 24 -25 0 -64 20 -40 20 23 0 3 18 -28 25 -17 4 -30 12 -30 19 0 15 -70 26 -160 26 -65 0 -102 9 -94 21 3 5 -5 9 -18 9 -18 0 -20 -2 -8 -10z"/>
<path d="M1288 413 c12 -2 30 -2 40 0 9 3 -1 5 -23 4 -22 0 -30 -2 -17 -4z"/>
</g>
<g id="layer107" fill="#393a44" stroke="none">
<path d="M1010 3397 c-63 -5 -212 -8 -332 -7 -119 1 -220 0 -226 -4 -5 -3 -88 -8 -183 -10 -96 -2 -175 -5 -176 -5 -2 -1 -3 -11 -3 -22 l0 -21 513 6 c975 11 2038 5 2045 -12 1 -4 -8 -9 -20 -10 -13 -2 -29 -9 -36 -14 -8 -7 -62 -9 -161 -4 -87 4 -152 3 -155 -2 -3 -5 -39 -8 -81 -7 -41 2 -78 -1 -81 -6 -3 -5 -51 -7 -113 -3 -73 5 -110 3 -115 -4 -4 -7 -39 -9 -97 -6 -50 2 -95 1 -101 -2 -5 -3 -30 -7 -56 -9 -164 -13 -202 -23 -202 -54 0 -28 53 -45 145 -47 44 0 90 -6 102 -12 15 -9 203 -12 680 -12 362 0 689 0 728 0 66 0 68 -1 47 -16 -27 -19 -29 -60 -3 -93 15 -20 30 -25 78 -29 33 -2 69 1 81 7 16 8 21 7 26 -5 3 -9 6 -17 6 -18 0 -1 -29 0 -65 2 -82 5 -106 -1 -144 -38 -60 -60 -48 -175 24 -239 49 -43 133 -71 214 -71 88 0 125 8 150 32 24 21 28 70 8 87 -22 18 -70 23 -100 12 l-28 -11 20 -26 c16 -21 18 -30 10 -40 -17 -21 -47 -17 -95 11 -54 32 -94 96 -94 152 0 48 18 66 63 65 35 -1 83 -47 93 -89 6 -21 12 -23 66 -23 l60 0 -6 28 c-4 15 -20 71 -37 124 -38 120 -73 164 -144 183 l-50 14 45 2 c25 1 119 3 210 5 91 1 187 2 214 3 27 1 55 6 63 12 10 9 51 10 143 5 74 -4 131 -3 134 2 3 5 42 8 87 5 45 -2 88 -2 97 2 15 5 184 13 303 14 30 0 87 5 125 11 38 6 121 12 184 12 119 1 140 7 140 40 0 19 -4 20 -72 12 -40 -5 -108 -8 -151 -6 -42 2 -82 0 -87 -3 -12 -7 -255 -15 -462 -14 -86 1 -162 -2 -168 -6 -5 -3 -41 -9 -78 -12 -81 -6 -591 -14 -825 -12 -92 1 -173 -3 -180 -8 -7 -6 -67 -7 -142 -4 -114 5 -124 7 -85 15 25 5 77 10 115 11 39 1 75 3 80 4 9 3 155 8 238 10 64 1 199 21 250 37 43 14 48 19 45 42 -3 24 -10 29 -68 44 -36 10 -99 17 -140 17 -41 -1 -97 3 -125 9 -62 12 -1982 11 -2145 -1z m2259 -321 c10 -12 8 -17 -8 -26 -26 -14 -63 3 -55 25 8 19 48 19 63 1z"/>
<path d="M2 3333 c1 -16 5 -30 8 -33 3 -3 14 -23 26 -45 29 -57 71 -132 90 -160 12 -19 22 -23 39 -19 18 4 26 -1 39 -27 20 -40 20 -47 -1 -45 -14 1 -17 -12 -18 -99 -3 -130 21 -229 83 -354 58 -116 113 -193 202 -281 36 -36 79 -82 95 -102 17 -21 34 -38 38 -38 12 0 37 -27 37 -39 0 -6 5 -11 12 -11 6 0 54 -45 105 -100 52 -55 101 -100 109 -100 7 0 18 -9 23 -19 6 -10 68 -71 138 -136 71 -64 153 -141 183 -171 30 -30 60 -54 65 -54 6 0 19 -14 29 -31 13 -21 24 -29 39 -27 20 3 22 10 25 66 2 34 -1 62 -6 62 -5 0 -12 28 -15 61 -3 34 -10 66 -15 71 -6 6 -8 16 -6 22 4 12 -16 107 -50 228 -26 93 -102 276 -155 369 -57 99 -158 237 -196 267 -14 11 -25 24 -25 30 0 5 -19 26 -43 47 -23 21 -71 64 -106 96 -35 32 -77 64 -92 71 -16 7 -29 16 -29 20 0 15 -193 137 -313 198 -56 29 -78 48 -124 108 -31 39 -60 72 -64 72 -5 0 -9 6 -9 13 0 6 -16 32 -35 56 -19 24 -35 48 -35 52 0 5 -12 9 -26 9 -22 0 -25 -4 -22 -27z m265 -376 c25 -37 289 -470 305 -501 10 -19 10 -20 -6 -7 -20 17 -183 262 -243 366 -62 107 -93 163 -93 169 0 15 17 3 37 -27z"/>
</g>
<g id="layer108" fill="#404143" stroke="none">
<path d="M1015 3397 c-66 -5 -217 -8 -337 -7 -119 1 -222 -1 -229 -6 -7 -4 -37 -6 -67 -5 -30 1 -108 -1 -173 -4 -110 -7 -119 -9 -119 -28 0 -20 3 -20 388 -13 701 12 2175 6 2180 -10 6 -18 -67 -28 -208 -29 -80 0 -150 -3 -155 -7 -6 -3 -47 -5 -93 -3 -45 2 -85 -1 -88 -6 -3 -6 -45 -7 -104 -3 -54 4 -107 3 -117 -2 -10 -4 -58 -9 -108 -9 -49 -1 -115 -5 -145 -9 -30 -3 -77 -8 -105 -10 -62 -5 -105 -24 -105 -46 0 -27 49 -42 146 -45 50 -2 100 -8 112 -14 14 -7 217 -11 674 -11 359 0 684 0 723 0 66 0 68 -1 47 -16 -27 -19 -29 -60 -3 -93 15 -20 30 -25 78 -29 33 -2 69 1 81 7 16 8 21 7 26 -5 3 -9 6 -17 6 -18 0 -1 -29 0 -65 2 -82 5 -106 -1 -144 -38 -60 -60 -48 -175 24 -239 49 -43 133 -71 214 -71 88 0 125 8 150 32 24 21 28 70 8 87 -22 18 -70 23 -100 12 l-28 -11 20 -26 c16 -21 18 -30 10 -40 -17 -21 -47 -17 -95 11 -54 32 -94 96 -94 152 0 48 18 66 63 65 35 -1 83 -47 93 -89 6 -21 12 -23 66 -23 l60 0 -7 33 c-17 78 -68 214 -92 245 -30 40 -77 62 -129 62 -21 0 -35 3 -31 6 5 5 251 12 486 14 25 0 50 5 58 11 7 7 62 11 140 10 234 -2 314 -1 324 5 9 5 189 13 317 13 34 0 67 3 73 7 14 8 84 14 194 15 49 0 95 5 102 10 8 7 18 7 31 0 22 -12 42 3 42 32 0 17 -5 18 -67 10 -38 -4 -105 -7 -151 -5 -46 1 -87 0 -91 -3 -13 -7 -295 -18 -417 -16 -72 2 -114 -1 -118 -8 -9 -14 -53 -14 -61 -1 -4 6 -12 7 -18 3 -19 -12 -126 -16 -389 -14 -136 0 -249 -3 -252 -7 -2 -4 -104 -6 -227 -5 -122 2 -227 -1 -233 -5 -6 -5 -72 -6 -146 -4 l-135 5 65 14 c39 8 86 11 117 8 29 -4 58 -3 64 1 10 6 126 13 234 13 56 0 210 23 258 38 43 13 48 18 45 41 -3 24 -10 29 -68 44 -36 10 -99 17 -140 17 -41 0 -104 4 -140 9 -82 12 -1960 11 -2125 -1z m2254 -321 c10 -12 8 -17 -8 -26 -26 -14 -63 3 -55 25 8 19 48 19 63 1z"/>
<path d="M2 3333 c1 -16 5 -30 8 -33 4 -3 14 -21 23 -40 10 -19 37 -69 61 -110 39 -66 47 -75 70 -72 18 2 28 -3 33 -15 3 -10 23 -40 43 -68 21 -27 90 -137 154 -244 64 -106 133 -218 152 -248 19 -30 32 -58 29 -61 -3 -4 -9 -2 -13 4 -18 25 -208 315 -236 359 -25 39 -101 183 -101 192 0 0 -9 3 -19 5 -18 3 -20 -4 -21 -97 -1 -55 1 -104 3 -109 3 -5 6 -23 8 -40 6 -70 53 -181 130 -306 42 -69 98 -131 291 -323 274 -275 382 -380 473 -461 36 -32 88 -80 116 -107 29 -27 56 -49 62 -49 5 0 20 -16 33 -35 36 -53 63 -45 67 19 2 28 -1 59 -7 70 -5 12 -12 45 -15 75 -3 30 -10 59 -15 64 -5 5 -7 15 -5 22 11 28 -57 262 -123 425 -64 157 -173 331 -265 423 -26 26 -48 51 -48 56 0 5 -17 23 -37 40 -21 18 -54 47 -73 66 -19 19 -38 35 -41 35 -4 0 -24 16 -45 35 -21 19 -43 35 -50 35 -6 0 -14 6 -17 14 -6 16 -215 148 -311 196 -57 29 -78 47 -123 108 -31 39 -59 72 -64 72 -5 0 -9 5 -9 11 0 6 -16 30 -35 53 -19 24 -35 48 -35 55 0 6 -12 11 -26 11 -22 0 -25 -4 -22 -27z"/>
<path d="M762 3084 c-31 -21 -29 -68 6 -137 l29 -57 -36 6 c-47 8 -92 -24 -75 -53 16 -28 74 -52 134 -55 51 -2 60 -7 114 -55 85 -76 144 -103 226 -103 37 0 69 3 73 6 3 3 -1 24 -8 47 -33 101 -54 168 -81 260 l-28 97 -72 0 -72 0 29 -92 c15 -51 27 -94 25 -95 -2 -2 -17 -8 -35 -13 -37 -10 -41 -5 -92 104 -20 42 -33 86 -33 112 l-1 44 -40 0 c-22 0 -51 -7 -63 -16z m64 -242 c-9 -8 -26 10 -26 26 1 15 2 15 15 -2 8 -11 13 -21 11 -24z m227 -59 c3 -10 10 -33 16 -51 9 -30 8 -31 -8 -20 -10 7 -32 30 -50 51 l-33 37 35 0 c24 0 36 -5 40 -17z"/>
<path d="M1531 3016 c-20 -21 -22 -31 -16 -68 4 -24 14 -59 22 -78 9 -22 12 -49 8 -72 -5 -30 -4 -38 9 -38 9 0 20 -15 27 -39 l12 -39 66 -4 c36 -3 68 -4 70 -2 2 2 -1 21 -7 44 -9 36 -8 40 9 40 10 0 19 7 19 15 0 9 -9 15 -24 15 -21 0 -27 9 -50 81 -14 44 -26 84 -26 90 0 17 36 9 55 -11 10 -11 24 -20 30 -20 7 0 23 -33 35 -72 12 -40 31 -101 41 -134 l20 -61 67 -6 c37 -3 69 -4 70 -2 2 2 -3 26 -11 54 l-15 51 63 0 c47 0 66 4 78 18 22 24 21 72 0 133 -24 65 -8 83 35 41 21 -21 38 -54 55 -109 l23 -78 73 -3 c57 -2 72 0 69 10 -27 73 -59 190 -54 196 15 14 42 -17 59 -69 10 -30 25 -73 34 -96 l15 -43 70 0 c58 0 69 3 64 15 -3 8 -17 54 -32 101 -29 97 -23 125 19 80 13 -14 28 -26 34 -26 8 0 23 -41 51 -135 l9 -30 123 -2 c78 -2 128 2 137 8 16 14 17 51 1 67 -19 19 -85 15 -97 -5 -19 -35 -43 -1 -74 105 l-30 102 -69 0 c-37 0 -68 -4 -68 -9 0 -6 -12 -6 -30 0 -16 6 -56 8 -87 5 -77 -8 -88 -8 -160 0 -47 5 -66 3 -83 -9 -19 -13 -26 -13 -56 -1 -51 22 -140 18 -164 -6 -25 -25 -25 -39 -1 -115 20 -63 19 -75 -5 -75 -17 0 -45 60 -70 148 l-17 62 -68 0 c-39 0 -69 -5 -71 -11 -2 -7 -12 -7 -31 0 -16 6 -52 11 -81 11 -43 0 -57 -5 -75 -24z"/>
<path d="M3870 3033 c-37 -14 -50 -36 -50 -88 0 -69 40 -134 102 -164 38 -18 62 -21 171 -21 81 0 127 4 127 10 0 6 -9 36 -19 68 -25 75 -35 128 -24 135 4 3 22 -7 39 -22 28 -25 45 -63 72 -156 l9 -30 133 -3 c113 -2 136 0 151 14 24 22 24 71 2 135 -13 37 -15 51 -6 60 9 9 18 5 36 -15 13 -14 29 -26 35 -26 10 0 28 -41 42 -97 4 -19 4 -33 -1 -33 -5 0 -9 -9 -9 -20 0 -13 7 -20 19 -20 15 0 21 -10 26 -39 l6 -38 72 -6 c39 -3 72 -5 74 -4 1 2 -4 21 -12 42 -13 39 -13 40 11 43 31 4 26 26 -7 30 -22 3 -28 14 -52 89 -27 86 -28 106 -3 97 28 -11 29 19 2 43 -35 30 -114 33 -140 4 -16 -18 -18 -18 -54 0 -51 27 -145 26 -172 -1 -25 -25 -25 -39 -1 -115 20 -63 19 -75 -5 -75 -17 0 -45 60 -70 148 l-17 62 -69 0 c-40 0 -68 -4 -68 -10 0 -7 -6 -7 -19 0 -28 15 -123 12 -147 -4 -17 -12 -22 -12 -39 0 -19 14 -114 18 -145 7z m138 -70 c20 -18 52 -101 52 -135 0 -11 -7 -18 -20 -18 -37 0 -93 112 -77 155 8 20 20 19 45 -2z"/>
</g>
<g id="layer109" fill="#0b10ad" stroke="none">
<path d="M1487 1244 c-2 -2 -39 -6 -83 -8 -67 -4 -141 -15 -272 -42 -12 -2 -31 -12 -41 -22 -10 -9 -44 -30 -75 -47 -32 -16 -67 -42 -78 -57 -10 -16 -25 -28 -32 -28 -7 0 -34 -22 -60 -50 -26 -27 -51 -50 -55 -50 -8 0 -12 -35 -14 -144 0 -50 3 -62 22 -77 12 -10 21 -19 20 -21 -8 -11 38 -59 69 -72 44 -18 66 -35 74 -56 4 -12 37 -19 134 -29 71 -7 131 -15 134 -18 2 -2 -2 -8 -9 -12 -21 -13 32 -17 169 -10 69 3 116 6 105 7 -12 1 -15 5 -10 11 12 11 83 19 246 27 108 6 116 7 112 25 -5 17 -7 17 -26 4 -37 -26 -42 -16 -6 10 69 50 105 72 144 87 22 9 39 21 37 27 -1 6 2 11 8 11 5 0 39 28 74 63 82 79 111 141 95 200 -14 54 -82 122 -132 131 -20 4 -37 11 -37 16 0 6 -5 10 -10 10 -6 0 -29 8 -53 19 -79 34 -92 38 -167 51 -41 6 -86 17 -100 25 -24 12 -174 28 -183 19z"/>
<path d="M3364 1230 c-28 -4 -59 -12 -70 -18 -10 -5 -35 -10 -55 -10 -20 0 -46 -5 -57 -11 -11 -6 -32 -11 -46 -11 -13 0 -31 -6 -38 -13 -7 -7 -35 -19 -63 -26 -27 -8 -55 -19 -60 -26 -6 -7 -21 -16 -35 -20 -45 -14 -89 -67 -104 -123 -7 -29 -10 -55 -6 -57 4 -3 10 -18 13 -33 6 -31 70 -105 99 -115 10 -3 20 -19 24 -34 11 -50 13 -53 47 -53 20 0 47 -10 67 -25 19 -14 39 -25 45 -25 6 0 43 -16 82 -35 39 -19 82 -35 95 -35 12 0 31 -7 42 -15 12 -9 44 -14 94 -14 58 0 79 -4 88 -15 9 -13 32 -16 120 -15 60 1 99 4 87 6 -47 9 -21 23 42 23 35 0 74 4 87 9 13 5 50 14 83 21 33 6 79 20 103 31 23 10 49 19 57 19 17 0 99 79 91 87 -3 3 4 13 16 22 18 15 21 28 20 88 0 71 -13 109 -49 148 -10 11 -29 35 -41 53 -13 17 -30 32 -37 32 -8 0 -19 9 -25 20 -6 11 -26 28 -44 38 -18 9 -51 29 -73 44 -45 30 -142 65 -218 80 -66 13 -316 18 -381 8z"/>
<path d="M760 930 c0 -7 3 -10 7 -7 3 4 3 10 0 14 -4 3 -7 0 -7 -7z"/>
</g>
<g id="layer110" fill="#505050" stroke="none">
<path d="M1227 3403 c-6 -5 -271 -13 -547 -16 -118 -1 -264 -5 -325 -8 -60 -3 -145 -7 -187 -8 -72 -1 -78 -3 -78 -22 0 -19 4 -20 61 -15 33 3 583 5 1222 5 639 -1 1208 0 1263 1 65 1 104 -2 108 -9 5 -7 -4 -11 -24 -11 -18 0 -60 -7 -93 -16 -41 -10 -98 -15 -172 -14 -60 1 -162 -1 -225 -5 -63 -4 -164 -8 -225 -10 -194 -7 -309 -13 -350 -19 -22 -3 -60 -6 -85 -7 -25 -1 -49 -4 -55 -7 -5 -3 -20 -7 -34 -8 -13 -2 -31 -10 -40 -18 -14 -15 -14 -18 1 -32 17 -17 56 -24 163 -29 39 -1 96 -8 128 -14 77 -14 1322 -15 1399 -1 30 6 150 13 268 15 118 3 253 8 300 11 47 3 141 7 210 9 164 5 306 11 465 19 128 7 159 9 325 21 47 4 114 8 150 11 58 4 110 8 148 13 6 0 12 8 12 16 0 16 -117 16 -440 0 -80 -4 -192 -9 -250 -11 -58 -2 -150 -6 -205 -9 -175 -8 -582 -18 -850 -20 -143 -1 -341 -4 -440 -6 -116 -3 -180 0 -180 6 0 6 25 11 55 12 30 1 98 4 150 7 116 7 299 17 320 17 67 3 266 31 288 41 16 8 27 21 27 33 0 36 -70 56 -210 61 -38 1 -108 6 -155 12 -82 10 -1884 15 -1893 5z"/>
<path d="M0 3345 c0 -8 22 -58 50 -109 77 -147 87 -161 114 -161 20 0 40 -23 110 -128 47 -70 86 -131 86 -135 0 -4 20 -37 43 -73 24 -36 46 -72 49 -80 3 -8 38 -65 77 -127 65 -104 78 -131 47 -99 -19 19 -126 171 -173 245 -85 134 -128 208 -153 262 -20 44 -35 60 -55 60 -11 0 -11 -164 0 -234 8 -54 54 -188 70 -206 8 -8 18 -27 24 -43 28 -72 123 -186 324 -387 220 -220 348 -344 453 -438 32 -29 75 -68 94 -87 20 -19 39 -35 43 -35 10 0 117 -111 117 -122 0 -5 10 -8 23 -6 18 2 23 10 25 46 2 24 -1 49 -6 55 -5 7 -12 43 -16 81 -4 38 -10 74 -13 79 -3 6 -8 28 -10 51 -2 22 -8 45 -13 50 -6 6 -10 21 -10 35 0 30 -48 192 -61 206 -5 5 -9 18 -9 29 0 18 -39 106 -98 221 -37 72 -141 222 -158 229 -8 3 -14 11 -14 17 0 12 -202 219 -213 219 -4 0 -26 18 -48 40 -23 22 -48 40 -55 40 -8 0 -14 4 -14 9 0 11 -197 139 -270 175 -101 50 -110 57 -151 112 -23 30 -45 54 -50 54 -5 0 -9 7 -9 15 0 7 -6 18 -12 22 -7 4 -17 15 -23 24 -58 91 -115 138 -115 94z"/>
<path d="M3151 3125 c-51 -29 -55 -72 -10 -109 37 -32 120 -37 151 -9 10 9 18 11 18 5 0 -6 2 -16 5 -24 4 -11 -10 -13 -69 -10 -63 4 -81 1 -109 -17 -44 -27 -62 -63 -62 -127 0 -72 39 -128 120 -169 54 -28 66 -30 166 -30 100 0 109 2 133 24 50 47 25 106 -44 105 -54 -2 -70 -17 -45 -44 14 -16 15 -22 5 -35 -19 -23 -51 -18 -103 14 -54 35 -87 92 -87 149 0 101 100 91 154 -15 16 -31 20 -33 71 -33 30 0 55 4 55 8 0 5 -13 51 -28 103 -57 189 -90 223 -217 226 -53 1 -88 -3 -104 -12z m125 -47 c6 -10 -20 -38 -36 -38 -3 0 -14 6 -25 13 -24 18 -11 37 25 37 16 0 32 -5 36 -12z"/>
<path d="M762 3084 c-31 -21 -28 -66 7 -137 l30 -57 -37 6 c-48 8 -93 -24 -76 -53 16 -28 74 -52 134 -55 50 -2 60 -7 112 -53 31 -27 71 -57 90 -66 18 -9 44 -22 58 -28 14 -7 53 -11 85 -9 57 3 60 4 59 28 -1 14 -11 54 -22 90 -11 36 -35 116 -53 178 l-32 112 -69 0 c-48 0 -68 -4 -68 -12 0 -7 11 -49 24 -92 14 -44 23 -83 21 -87 -3 -4 -19 -9 -36 -11 -27 -4 -34 0 -57 36 -36 57 -75 173 -68 202 6 22 4 24 -37 24 -23 0 -53 -7 -65 -16z m66 -240 c-10 -10 -28 6 -28 24 0 15 1 15 17 -1 9 -9 14 -19 11 -23z m225 -61 c3 -10 10 -33 16 -51 9 -30 8 -31 -8 -20 -10 7 -32 30 -50 51 l-33 37 35 0 c24 0 36 -5 40 -17z"/>
<path d="M1180 3025 c0 -8 6 -32 14 -52 7 -21 20 -63 29 -93 9 -30 20 -68 25 -85 l9 -30 123 -2 c78 -2 128 2 137 8 16 14 17 51 1 67 -19 19 -85 15 -97 -5 -19 -35 -43 -1 -74 105 l-30 102 -69 0 c-53 0 -68 -3 -68 -15z"/>
<path d="M1531 3016 c-26 -28 -24 -65 11 -164 13 -37 16 -58 9 -60 -16 -5 -13 -32 4 -32 8 0 19 -17 26 -40 12 -39 13 -40 58 -40 25 0 57 -3 70 -7 22 -6 24 -4 18 23 -3 16 -9 37 -12 47 -6 13 -2 17 14 17 12 0 21 6 21 15 0 9 -9 15 -24 15 -21 0 -27 9 -50 81 -14 44 -26 84 -26 90 0 17 36 9 55 -11 10 -11 24 -20 30 -20 7 0 25 -39 40 -87 15 -49 33 -109 41 -134 l15 -46 67 -6 c37 -3 69 -4 70 -2 2 2 -3 26 -11 54 l-15 51 57 0 c100 0 120 34 84 147 -22 69 -9 87 35 46 22 -20 38 -50 55 -108 l23 -80 73 -3 c57 -2 72 0 69 10 -27 73 -59 190 -54 196 15 14 42 -17 59 -69 10 -30 25 -73 34 -96 l15 -43 64 0 c76 0 75 -3 38 117 -30 99 -24 116 28 76 34 -27 43 -45 76 -158 l9 -30 123 -2 c78 -2 128 2 137 8 16 14 17 51 1 67 -19 19 -85 15 -97 -5 -19 -35 -43 -1 -74 105 l-30 102 -69 0 c-37 0 -68 -4 -68 -10 0 -6 -9 -6 -26 0 -40 15 -130 12 -147 -5 -14 -13 -19 -13 -44 0 -35 19 -122 19 -146 1 -16 -12 -24 -12 -52 0 -19 8 -58 14 -88 14 -43 0 -58 -5 -75 -23 -27 -28 -27 -36 -2 -115 22 -70 19 -88 -11 -72 -22 12 -38 48 -63 143 l-18 67 -68 0 c-39 0 -70 -5 -72 -11 -2 -7 -12 -7 -31 0 -16 6 -52 11 -81 11 -43 0 -57 -5 -75 -24z"/>
<path d="M3490 3025 c0 -8 6 -32 14 -52 7 -21 20 -63 29 -93 9 -30 20 -68 25 -85 l9 -30 123 -2 c78 -2 128 2 137 8 16 14 17 51 1 67 -19 19 -85 15 -97 -5 -19 -35 -43 -1 -74 105 l-30 102 -69 0 c-53 0 -68 -3 -68 -15z"/>
<path d="M3863 3030 c-32 -13 -46 -47 -41 -101 7 -64 45 -121 100 -148 38 -18 62 -21 171 -21 75 0 127 4 127 10 0 5 -11 44 -25 86 -14 42 -25 85 -25 95 0 32 21 32 50 1 25 -27 43 -69 68 -157 l9 -30 128 -3 c102 -2 132 0 151 13 29 19 31 60 8 128 -27 79 -9 91 54 38 28 -24 69 -134 53 -139 -19 -6 -13 -42 8 -42 13 0 21 -10 25 -34 4 -20 14 -37 24 -40 27 -8 111 -11 117 -4 4 3 2 22 -3 42 -9 32 -8 36 9 36 10 0 19 7 19 15 0 9 -9 15 -23 15 -20 0 -26 11 -50 86 -27 88 -28 108 -2 97 24 -9 18 34 -7 51 -32 23 -110 21 -132 -3 -16 -18 -18 -18 -54 0 -54 28 -142 26 -170 -4 -27 -28 -27 -36 -2 -115 22 -70 19 -88 -11 -72 -22 12 -38 48 -63 143 l-18 67 -69 0 c-41 0 -69 -4 -69 -10 0 -7 -6 -7 -19 0 -28 15 -124 12 -146 -4 -15 -11 -22 -11 -44 0 -29 15 -114 17 -148 4z m145 -67 c20 -17 64 -141 56 -155 -2 -3 -13 -4 -25 -1 -40 11 -91 117 -76 158 8 20 20 19 45 -2z"/>
</g>
<g id="layer111" fill="#1b26c0" stroke="none">
<path d="M1355 1204 c-11 -2 -45 -9 -75 -15 -105 -20 -251 -82 -299 -127 -10 -9 -43 -39 -75 -66 -31 -27 -56 -55 -56 -62 0 -6 -6 -17 -14 -23 -36 -30 -31 -175 5 -186 11 -4 24 -18 29 -31 5 -13 14 -24 19 -24 5 0 36 -16 68 -34 32 -19 99 -47 148 -62 83 -25 104 -27 270 -27 115 -1 200 4 235 12 92 22 184 53 200 67 8 7 36 21 61 32 25 11 52 26 60 34 8 8 34 28 59 45 55 38 99 84 134 140 21 34 24 49 18 76 -9 42 -85 127 -113 127 -22 0 -90 26 -99 38 -7 11 -191 62 -221 62 -14 0 -30 5 -37 12 -12 12 -274 22 -317 12z"/>
<path d="M3380 1203 c-19 -2 -40 -9 -45 -13 -6 -5 -31 -12 -55 -15 -55 -8 -171 -41 -225 -65 -22 -10 -53 -21 -70 -25 -29 -6 -94 -67 -115 -105 -44 -82 91 -241 286 -338 118 -58 231 -89 344 -93 182 -7 283 -1 381 25 105 27 259 99 259 121 0 7 10 21 23 30 19 14 22 24 22 88 -1 84 -19 117 -113 205 -66 62 -156 117 -216 133 -17 4 -58 18 -91 30 -50 18 -84 22 -205 25 -80 1 -161 0 -180 -3z"/>
</g>
<g id="layer112" fill="#2935ce" stroke="none">
<path d="M1380 1173 c-66 -6 -155 -26 -195 -43 -22 -10 -56 -23 -75 -31 -19 -7 -49 -24 -66 -38 -17 -14 -48 -39 -69 -56 -69 -56 -82 -71 -110 -134 l-28 -62 19 -39 c10 -22 21 -40 24 -40 3 0 23 -16 43 -35 20 -19 42 -35 48 -35 6 0 34 -12 63 -26 28 -15 69 -31 91 -36 164 -36 423 -44 506 -16 24 9 65 20 91 27 25 6 63 22 83 35 20 14 46 28 58 32 26 8 152 102 184 136 12 12 33 45 47 71 23 45 24 52 12 80 -17 39 -52 77 -71 77 -8 0 -41 14 -73 30 -33 17 -67 30 -76 30 -9 0 -42 9 -74 20 -129 46 -296 67 -432 53z"/>
<path d="M3449 1176 c-2 -2 -29 -6 -59 -9 -66 -7 -179 -36 -200 -52 -8 -7 -32 -12 -52 -12 -22 -1 -59 -13 -91 -32 -30 -17 -63 -31 -74 -31 -25 0 -48 -25 -67 -71 -19 -45 -6 -94 36 -141 15 -17 28 -35 28 -40 0 -4 5 -8 11 -8 6 0 34 -19 62 -42 62 -52 179 -113 267 -140 99 -30 273 -44 367 -30 179 26 241 40 296 65 32 15 62 27 67 27 18 0 87 74 104 111 16 35 16 38 -8 93 -14 31 -30 56 -35 56 -6 0 -11 5 -11 12 0 20 -154 158 -176 158 -7 0 -17 6 -21 13 -9 14 -155 54 -243 67 -58 9 -194 13 -201 6z"/>
</g>
<g id="layer113" fill="#394cdc" stroke="none">
<path d="M1361 1144 c-68 -7 -128 -18 -135 -23 -6 -5 -31 -14 -55 -21 -86 -23 -260 -176 -282 -248 -17 -58 1 -103 59 -145 26 -19 58 -38 72 -42 14 -4 43 -16 65 -26 126 -57 448 -81 555 -40 30 12 63 21 72 21 70 0 358 207 358 258 0 7 5 21 11 31 24 38 -25 121 -71 121 -12 0 -47 13 -79 29 -31 15 -80 32 -107 36 -27 4 -60 13 -74 19 -14 7 -70 18 -125 25 -55 7 -109 14 -120 16 -11 1 -76 -3 -144 -11z"/>
<path d="M3413 1145 c-62 -6 -119 -18 -128 -25 -8 -7 -55 -19 -102 -27 -48 -7 -90 -18 -93 -23 -8 -12 -91 -50 -112 -50 -9 0 -26 -12 -38 -27 -44 -56 -10 -156 69 -204 14 -9 42 -31 61 -49 19 -18 71 -52 115 -75 169 -88 386 -115 565 -71 30 8 77 19 105 26 27 6 63 17 80 25 16 7 40 16 53 20 13 4 45 23 72 43 42 31 50 43 56 79 4 27 1 56 -7 76 -29 74 -205 218 -304 250 -43 13 -103 23 -250 41 -16 2 -80 -2 -142 -9z"/>
</g>
<g id="layer114" fill="#4c65e2" stroke="none">
<path d="M1405 1108 c-22 -4 -59 -7 -83 -7 -70 -1 -241 -90 -314 -163 -87 -87 -107 -151 -53 -172 8 -3 15 -12 15 -20 0 -8 14 -20 30 -28 17 -7 30 -16 30 -19 0 -3 18 -12 41 -19 23 -8 43 -19 46 -26 2 -7 47 -17 106 -24 56 -7 107 -17 114 -22 16 -13 250 -13 266 -1 7 5 32 15 57 22 76 22 174 64 196 83 11 10 24 18 28 18 9 0 50 35 74 65 10 10 32 33 50 51 61 58 54 154 -11 154 -18 1 -43 7 -57 15 -14 8 -38 14 -55 15 -28 0 -86 16 -165 46 -39 15 -224 45 -255 42 -11 -1 -38 -6 -60 -10z"/>
<path d="M3495 1114 c-148 -19 -194 -27 -219 -40 -16 -8 -38 -14 -48 -14 -11 0 -29 -5 -41 -12 -12 -7 -67 -24 -121 -38 -91 -24 -100 -28 -107 -53 -11 -41 8 -85 60 -140 55 -58 178 -143 220 -152 17 -4 33 -11 36 -16 4 -5 19 -9 34 -9 15 0 31 -4 36 -9 34 -33 318 -44 359 -15 11 8 40 14 63 14 42 0 194 55 201 72 2 4 9 8 15 8 24 0 97 75 97 98 0 32 -48 99 -107 150 -26 24 -57 51 -68 61 -12 11 -45 26 -74 35 -30 9 -60 21 -67 27 -12 10 -63 18 -199 32 -22 3 -53 3 -70 1z"/>
</g>
<g id="layer115" fill="#546eea" stroke="none">
<path d="M1405 1090 c-11 -5 -40 -9 -64 -9 -25 -1 -63 -9 -85 -20 -23 -10 -61 -26 -86 -37 -92 -39 -163 -101 -215 -190 l-18 -32 38 -33 c52 -46 112 -79 143 -79 14 0 33 -6 41 -14 9 -7 56 -18 105 -24 49 -5 92 -15 96 -22 12 -19 186 -18 251 2 30 9 86 27 124 39 39 12 84 32 102 45 17 13 35 24 40 24 12 1 83 69 83 80 0 5 16 20 35 32 36 24 53 67 41 106 -5 16 -18 21 -63 24 -31 3 -59 10 -61 16 -2 7 -12 12 -23 12 -26 0 -151 31 -164 41 -5 4 -50 17 -98 28 -91 22 -187 26 -222 11z"/>
<path d="M3413 1089 c-29 -5 -72 -17 -95 -27 -24 -11 -79 -27 -123 -37 -44 -10 -85 -22 -91 -27 -6 -4 -35 -13 -64 -18 -91 -17 -94 -54 -14 -145 97 -110 177 -154 354 -197 93 -23 259 -26 272 -5 4 6 33 12 65 13 103 4 280 78 321 134 l22 29 -23 43 c-12 24 -46 64 -75 88 -29 25 -64 55 -77 67 -14 12 -42 25 -63 29 -20 4 -50 14 -67 22 -54 29 -254 47 -342 31z"/>
</g>
<g id="layer116" fill="#939393" stroke="none">
<path d="M1515 3399 c-22 -4 -243 -10 -490 -13 -701 -8 -935 -16 -935 -33 0 -11 221 -13 1360 -12 747 0 1364 -2 1370 -6 24 -15 6 -25 -47 -25 -32 0 -96 -4 -143 -9 -47 -6 -182 -13 -300 -17 -225 -7 -242 -8 -460 -18 -325 -15 -420 -30 -420 -66 0 -13 9 -22 28 -26 15 -3 34 -8 42 -10 8 -3 78 -8 155 -11 77 -3 144 -9 150 -14 12 -12 1178 -12 1190 0 6 5 143 12 305 16 162 4 320 9 350 11 30 1 116 5 190 8 74 3 169 8 210 10 41 3 138 8 215 11 77 3 205 10 285 15 288 19 346 23 380 25 57 3 60 4 60 20 0 18 -14 19 -250 5 -352 -19 -852 -36 -1315 -44 -71 -2 -311 -6 -532 -11 -273 -5 -403 -5 -403 2 0 13 72 23 164 23 39 0 143 4 231 10 517 33 601 47 569 98 -17 27 -113 41 -319 48 -104 3 -207 10 -227 14 -47 10 -1358 9 -1413 -1z"/>
<path d="M0 3346 c0 -14 52 -117 71 -142 5 -6 22 -35 38 -65 21 -40 35 -54 51 -55 13 -1 31 -12 42 -25 50 -64 154 -226 278 -437 44 -73 100 -163 124 -200 25 -36 43 -69 40 -72 -10 -9 -72 71 -178 230 -146 221 -156 237 -201 326 -43 85 -54 99 -69 84 -16 -16 -8 -180 14 -265 25 -100 97 -248 166 -340 70 -93 462 -482 743 -735 45 -41 115 -105 154 -143 39 -37 77 -65 84 -63 15 6 18 66 3 66 -5 0 -10 17 -10 38 0 67 -45 289 -79 390 -12 34 -21 66 -21 72 0 16 -111 271 -134 306 -12 18 -39 61 -61 95 -35 56 -194 248 -227 274 -7 6 -47 39 -89 75 -128 109 -332 243 -447 295 -36 15 -64 45 -154 162 -102 132 -138 166 -138 129z"/>
<path d="M3151 3125 c-50 -28 -55 -72 -10 -109 37 -32 120 -37 151 -9 10 9 18 11 18 5 0 -6 2 -17 5 -24 4 -11 -8 -13 -64 -10 -120 7 -175 -36 -176 -140 0 -76 37 -131 120 -173 54 -28 67 -30 161 -30 88 0 106 3 131 21 32 24 40 60 19 89 -10 15 -25 19 -56 19 -54 -2 -70 -17 -45 -44 14 -16 15 -22 5 -35 -17 -20 -43 -19 -88 4 -63 32 -102 93 -102 159 0 101 100 91 154 -15 16 -31 20 -33 71 -33 30 0 55 4 55 10 0 25 -64 209 -86 248 -34 59 -84 82 -171 81 -37 -1 -79 -7 -92 -14z m128 -48 c8 -11 5 -16 -15 -25 -36 -17 -81 8 -57 31 11 12 60 7 72 -6z"/>
<path d="M762 3084 c-12 -8 -22 -26 -22 -38 0 -36 26 -102 60 -150 34 -51 36 -56 15 -56 -8 0 -15 9 -15 20 0 39 -62 52 -101 21 -22 -18 -22 -19 -6 -44 19 -29 62 -45 133 -49 43 -3 58 -10 105 -49 106 -89 159 -113 244 -107 46 3 50 5 49 28 -1 14 -11 54 -22 90 -11 36 -35 115 -54 175 l-33 110 -68 3 c-50 2 -67 0 -67 -10 0 -7 12 -48 25 -91 14 -43 23 -82 20 -87 -3 -4 -19 -10 -36 -12 -27 -4 -34 0 -56 35 -38 61 -75 168 -69 199 5 27 4 28 -37 28 -23 0 -53 -7 -65 -16z m291 -296 c3 -13 10 -38 15 -56 10 -30 9 -31 -7 -20 -10 7 -32 30 -50 50 l-32 37 28 4 c15 2 31 5 34 6 4 0 9 -9 12 -21z"/>
<path d="M1180 3030 c0 -5 6 -29 14 -52 8 -24 24 -77 36 -118 12 -41 23 -81 25 -87 5 -16 243 -17 262 -1 16 13 17 50 1 66 -19 19 -85 15 -97 -5 -20 -35 -45 0 -75 106 l-30 101 -68 0 c-37 0 -68 -4 -68 -10z"/>
<path d="M1531 3016 c-26 -28 -25 -50 10 -159 12 -39 16 -63 9 -65 -15 -5 -12 -32 5 -32 8 0 19 -17 26 -40 12 -39 13 -40 58 -40 25 0 57 -3 70 -7 22 -6 24 -4 18 23 -3 16 -9 37 -12 47 -6 13 -2 17 14 17 12 0 21 6 21 15 0 9 -9 15 -24 15 -22 0 -27 9 -50 80 -14 43 -26 84 -26 90 0 18 49 11 62 -10 7 -11 18 -20 25 -20 6 0 26 -46 43 -102 17 -57 36 -117 41 -134 9 -30 12 -32 77 -37 37 -3 69 -4 71 -2 2 2 -4 25 -13 51 -9 26 -16 50 -16 53 0 3 25 4 55 3 102 -7 124 30 88 145 -22 70 -9 87 36 46 23 -21 37 -49 55 -108 l23 -80 73 -3 c56 -2 71 0 68 10 -26 68 -60 190 -54 195 4 4 15 3 24 -3 14 -9 30 -47 77 -186 5 -15 18 -18 71 -18 44 0 64 4 64 13 0 6 -12 52 -26 100 -30 103 -24 120 29 80 29 -23 40 -42 57 -98 12 -38 23 -76 25 -82 5 -16 243 -17 262 -1 16 13 17 50 1 66 -19 19 -85 15 -97 -5 -20 -35 -45 0 -75 106 l-30 101 -67 0 c-42 0 -69 -4 -71 -11 -3 -9 -9 -9 -25 0 -32 16 -123 14 -143 -4 -15 -14 -20 -14 -46 0 -36 19 -123 19 -147 1 -16 -12 -24 -12 -54 0 -20 9 -57 14 -90 12 -48 -3 -59 -7 -76 -31 l-21 -27 23 -70 c24 -76 22 -96 -10 -80 -22 12 -39 49 -64 143 l-18 67 -68 0 c-39 0 -69 -5 -71 -11 -2 -7 -12 -7 -31 0 -16 6 -52 11 -81 11 -43 0 -57 -5 -75 -24z"/>
<path d="M3490 3030 c0 -5 6 -29 14 -52 8 -24 24 -77 36 -118 12 -41 23 -81 25 -87 5 -16 243 -17 262 -1 16 13 17 50 1 66 -19 19 -85 15 -97 -5 -20 -35 -45 0 -75 106 l-30 101 -68 0 c-37 0 -68 -4 -68 -10z"/>
<path d="M3863 3030 c-43 -17 -57 -89 -29 -153 17 -39 71 -92 109 -106 32 -12 277 -15 277 -3 0 4 -13 49 -30 101 -16 52 -27 98 -24 102 20 34 80 -35 106 -121 11 -36 21 -71 24 -77 6 -20 253 -18 282 3 27 19 29 56 5 131 -22 71 -10 84 43 42 29 -23 43 -45 56 -87 14 -41 15 -58 7 -63 -15 -9 -4 -39 15 -39 8 0 16 -14 20 -34 4 -20 14 -37 24 -40 27 -8 111 -11 117 -4 4 3 2 22 -3 42 -9 32 -8 36 9 36 10 0 19 7 19 15 0 9 -9 15 -23 15 -20 0 -26 11 -50 86 -28 87 -28 108 -2 97 24 -9 18 34 -7 51 -32 23 -110 21 -132 -3 -16 -18 -18 -18 -55 1 -28 14 -55 18 -96 16 -50 -3 -61 -7 -78 -31 l-21 -27 23 -70 c24 -76 22 -96 -10 -80 -22 12 -39 49 -64 143 l-18 67 -68 0 c-38 0 -69 -4 -69 -10 0 -6 -9 -6 -26 0 -37 14 -117 12 -139 -4 -15 -11 -22 -11 -44 0 -29 15 -114 17 -148 4z m146 -67 c22 -19 65 -143 53 -155 -26 -26 -102 69 -102 128 0 48 14 55 49 27z"/>
</g>
<g id="layer117" fill="#7199e8" stroke="none">
<path d="M1375 1059 c-164 -35 -233 -67 -317 -147 -83 -80 -92 -107 -47 -144 18 -16 37 -28 42 -28 5 0 23 -6 40 -14 153 -68 305 -101 427 -93 99 7 167 26 279 81 51 24 211 175 211 199 0 22 -28 47 -53 47 -12 0 -51 10 -87 21 -36 12 -105 32 -155 44 -49 13 -106 28 -125 33 -65 18 -135 19 -215 1z"/>
<path d="M3480 1070 c-50 -7 -213 -49 -335 -86 -27 -9 -66 -18 -85 -21 -19 -3 -41 -10 -47 -15 -21 -17 -15 -57 12 -84 14 -14 32 -36 41 -49 39 -60 251 -164 369 -180 104 -15 217 1 385 56 207 68 241 107 162 186 -105 105 -204 156 -360 183 -35 6 -69 12 -75 14 -7 2 -37 0 -67 -4z"/>
</g>
<g id="layer118" fill="#7290f7" stroke="none">
<path d="M1375 1060 c-166 -37 -233 -68 -317 -148 -83 -80 -92 -107 -47 -144 18 -16 38 -28 44 -28 5 0 22 -6 36 -14 33 -17 78 -30 109 -31 68 -4 80 -6 94 -21 9 -8 16 -14 16 -12 0 2 37 -1 81 -8 65 -9 107 -9 202 2 107 12 162 24 111 24 -18 1 -18 1 -1 11 9 6 26 7 37 4 12 -4 37 4 67 22 57 32 203 174 203 196 0 22 -28 47 -53 47 -12 0 -51 10 -87 21 -120 38 -170 49 -227 48 -32 0 -80 4 -108 10 -47 10 -46 10 25 5 52 -3 70 -2 60 5 -14 9 -48 16 -135 25 -16 2 -66 -5 -110 -14z m45 -20 c-14 -4 -45 -8 -70 -8 -40 0 -42 1 -15 8 17 4 48 8 70 8 34 0 36 -1 15 -8z"/>
<path d="M3480 1070 c-50 -7 -213 -49 -335 -86 -27 -9 -66 -18 -85 -21 -71 -11 -80 -52 -25 -110 19 -20 35 -40 35 -44 0 -10 90 -73 139 -99 23 -11 47 -18 53 -14 6 4 17 -1 24 -11 20 -26 173 -37 389 -26 68 4 122 20 104 33 -10 6 -3 8 21 7 52 -4 171 41 207 76 24 24 15 62 -25 102 -105 105 -204 156 -360 183 -35 6 -69 12 -75 14 -7 2 -37 0 -67 -4z m33 -27 c-13 -2 -33 -2 -45 0 -13 2 -3 4 22 4 25 0 35 -2 23 -4z m70 0 c-7 -2 -19 -2 -25 0 -7 3 -2 5 12 5 14 0 19 -2 13 -5z m-150 -10 c-7 -2 -21 -2 -30 0 -10 3 -4 5 12 5 17 0 24 -2 18 -5z m214 1 c-3 -3 -12 -4 -19 -1 -8 3 -5 6 6 6 11 1 17 -2 13 -5z m-364 -41 c-7 -2 -19 -2 -25 0 -7 3 -2 5 12 5 14 0 19 -2 13 -5z m-66 -260 c-4 -3 -10 -3 -14 0 -3 4 0 7 7 7 7 0 10 -3 7 -7z"/>
<path d="M1228 673 c7 -3 16 -2 19 1 4 3 -2 6 -13 5 -11 0 -14 -3 -6 -6z"/>
</g>
<g id="layer119" fill="#b0b0b0" stroke="none">
<path d="M1750 3407 c-7 -7 -364 -16 -845 -23 -214 -3 -408 -7 -430 -9 -33 -3 -330 -15 -372 -15 -7 0 -13 -3 -13 -7 0 -5 613 -8 1363 -8 749 -1 1385 -5 1412 -9 l50 -9 -55 -13 c-32 -8 -77 -12 -107 -8 -28 3 -69 1 -90 -5 -21 -5 -139 -12 -263 -16 -310 -9 -557 -20 -676 -31 -32 -3 -90 -7 -129 -10 -38 -2 -87 -10 -107 -17 -34 -12 -37 -15 -25 -31 22 -30 68 -35 482 -51 165 -7 744 -7 935 -1 80 3 233 8 340 11 379 12 711 24 830 30 36 2 115 6 175 9 61 3 159 8 218 11 59 2 112 7 116 10 8 4 202 14 378 19 63 2 87 11 65 25 -16 10 -129 6 -865 -29 -121 -6 -283 -11 -360 -11 -179 -1 -345 -4 -878 -14 -294 -6 -431 -5 -444 2 -24 14 44 21 260 27 142 5 183 7 385 22 306 23 370 34 370 65 0 10 -8 23 -18 28 -30 16 -170 32 -322 37 -80 3 -167 7 -195 10 -69 6 -1179 17 -1185 11z"/>
<path d="M0 3340 c0 -11 4 -20 9 -20 4 0 18 -21 30 -47 12 -27 33 -66 46 -88 13 -22 31 -52 40 -67 8 -16 22 -28 29 -28 27 0 67 -43 131 -140 36 -55 65 -102 65 -105 0 -5 40 -72 78 -131 6 -10 16 -28 21 -39 5 -11 21 -37 35 -58 14 -21 26 -40 26 -42 0 -2 22 -37 48 -77 75 -111 93 -146 84 -152 -11 -7 -23 7 -85 95 -160 229 -254 378 -313 497 -15 29 -30 55 -35 57 -39 25 -19 -239 26 -349 81 -194 169 -312 400 -535 192 -186 229 -222 316 -301 125 -115 205 -190 303 -285 51 -49 95 -84 103 -81 16 6 17 28 2 43 -6 6 -13 39 -16 74 -3 35 -6 75 -7 89 -2 14 -5 32 -8 40 -3 8 -17 67 -32 130 -41 171 -82 293 -142 412 -68 135 -133 237 -198 310 -28 31 -71 80 -96 107 -25 28 -52 53 -60 56 -8 3 -40 29 -71 58 -30 28 -73 64 -95 79 -21 15 -59 42 -84 59 -67 48 -135 88 -227 134 -74 36 -89 49 -143 119 -33 43 -60 81 -60 85 0 3 -20 28 -45 56 -25 27 -45 53 -45 57 0 5 -7 8 -15 8 -8 0 -15 -9 -15 -20z m693 -1042 c49 -55 119 -163 75 -116 -36 37 -118 137 -118 142 0 13 15 4 43 -26z"/>
<path d="M3149 3117 c-47 -31 -50 -66 -9 -101 25 -21 42 -26 85 -26 35 0 57 5 65 15 11 13 15 13 21 3 20 -31 10 -37 -59 -31 -92 8 -137 -13 -164 -74 -30 -69 -10 -143 57 -202 60 -52 99 -64 212 -65 88 -1 105 2 130 20 56 42 31 106 -42 106 -49 0 -64 -15 -40 -42 26 -29 4 -54 -42 -47 -102 17 -185 164 -128 227 36 40 105 7 140 -66 15 -33 18 -34 70 -34 30 0 55 4 55 8 0 5 -16 59 -35 120 -53 166 -100 212 -218 212 -50 0 -71 -5 -98 -23z m131 -42 c15 -18 13 -20 -21 -28 -29 -7 -66 14 -55 31 10 17 61 15 76 -3z"/>
<path d="M760 3082 c-21 -17 -22 -21 -11 -74 8 -36 27 -77 52 -113 22 -32 38 -59 36 -61 -10 -10 -37 10 -37 27 0 27 -43 45 -78 33 -21 -7 -27 -16 -27 -39 0 -41 48 -65 130 -65 58 -1 62 -2 105 -46 80 -81 149 -114 238 -114 59 0 71 13 54 58 -6 15 -25 74 -42 132 -18 58 -40 130 -49 160 l-18 55 -68 3 c-77 3 -74 14 -36 -112 11 -38 18 -72 16 -76 -3 -4 -19 -10 -36 -12 -27 -4 -34 0 -53 31 -49 78 -81 170 -72 207 6 23 4 24 -38 24 -27 0 -52 -7 -66 -18z m293 -294 c3 -13 10 -38 15 -56 l11 -32 -29 20 c-16 12 -38 34 -50 50 l-20 29 27 4 c16 2 31 5 34 6 4 0 9 -9 12 -21z"/>
<path d="M1180 3030 c0 -5 6 -29 14 -52 8 -24 24 -77 36 -118 12 -41 23 -80 25 -87 5 -15 243 -16 263 0 19 15 14 55 -7 67 -31 16 -79 12 -90 -7 -18 -32 -44 -1 -69 83 -39 132 -32 124 -107 124 -36 0 -65 -4 -65 -10z"/>
<path d="M1535 3018 c-31 -24 -30 -47 5 -159 13 -40 17 -65 10 -67 -15 -5 -12 -32 3 -32 14 0 37 -40 37 -65 0 -11 13 -15 48 -15 26 0 58 -3 71 -7 25 -6 26 0 5 70 -4 12 0 17 15 17 12 0 21 7 21 15 0 9 -9 15 -24 15 -22 0 -28 9 -52 85 -31 97 -25 121 20 91 15 -9 26 -21 26 -26 0 -6 6 -10 14 -10 10 0 25 -35 46 -102 56 -183 44 -165 119 -171 36 -3 67 -4 69 -3 1 2 -5 25 -13 52 -8 27 -15 51 -15 54 0 3 25 3 55 2 98 -7 129 41 90 135 -30 71 -14 98 33 58 22 -18 36 -46 52 -98 12 -39 23 -78 25 -84 3 -9 26 -13 71 -13 l66 0 -5 28 c-3 15 -13 52 -22 82 -28 93 -29 100 -11 100 21 0 41 -33 61 -100 36 -116 30 -110 101 -110 73 0 73 -1 45 86 -41 131 -37 151 22 106 29 -22 40 -41 57 -97 12 -38 23 -75 25 -82 5 -15 243 -16 263 0 19 15 14 55 -7 67 -31 16 -79 12 -90 -7 -18 -32 -44 -1 -69 83 -39 132 -32 124 -106 124 -35 0 -66 -5 -68 -10 -2 -7 -15 -7 -38 0 -50 14 -102 12 -127 -5 -19 -13 -24 -13 -50 0 -36 19 -106 19 -143 0 -25 -13 -32 -13 -57 0 -41 22 -136 20 -156 -3 -21 -23 -22 -75 -1 -136 12 -35 13 -51 5 -59 -19 -19 -47 19 -70 96 -38 124 -31 117 -107 117 -55 0 -65 -3 -60 -15 7 -19 5 -19 -30 0 -44 23 -126 19 -159 -7z"/>
<path d="M3490 3030 c0 -5 6 -29 14 -52 8 -24 24 -77 36 -118 12 -41 23 -80 25 -87 5 -15 243 -16 263 0 19 15 14 55 -7 67 -31 16 -79 12 -90 -7 -18 -32 -44 -1 -69 83 -39 132 -32 124 -107 124 -36 0 -65 -4 -65 -10z"/>
<path d="M3863 3030 c-43 -18 -56 -86 -29 -151 17 -41 71 -94 109 -108 32 -12 277 -15 277 -3 0 4 -13 49 -30 101 -16 52 -27 98 -24 102 21 35 78 -29 105 -116 11 -39 22 -75 24 -82 6 -19 253 -16 283 3 27 17 30 66 7 121 -32 75 -15 97 41 52 29 -23 43 -45 56 -87 14 -41 15 -58 7 -63 -16 -9 -4 -39 15 -39 9 0 18 -14 22 -35 3 -19 13 -36 23 -39 26 -8 110 -11 116 -4 4 3 2 22 -3 42 -9 32 -8 36 9 36 10 0 19 7 19 15 0 9 -9 15 -23 15 -20 0 -26 11 -50 86 -28 87 -28 108 -2 97 24 -9 18 34 -7 51 -33 23 -110 21 -133 -3 -17 -20 -17 -20 -53 0 -49 26 -142 26 -165 1 -21 -23 -22 -75 -1 -136 12 -35 13 -51 5 -59 -19 -19 -47 19 -70 96 -38 124 -32 117 -106 117 -36 0 -65 -4 -65 -10 0 -6 -9 -6 -26 0 -39 15 -115 12 -134 -5 -15 -14 -20 -14 -46 0 -31 16 -116 19 -151 5z m146 -67 c20 -18 64 -139 55 -154 -9 -15 -46 4 -70 36 -26 34 -41 93 -31 120 8 20 20 19 46 -2z"/>
</g>
<g id="layer120" fill="#879dfd" stroke="none">
<path d="M1405 1039 c-112 -26 -133 -32 -178 -55 -27 -13 -65 -38 -85 -54 -20 -17 -42 -30 -49 -30 -6 0 -14 -8 -18 -19 -3 -10 -14 -26 -25 -36 -22 -20 -27 -60 -7 -69 6 -3 26 -15 42 -26 37 -24 36 -24 115 -45 36 -9 81 -23 100 -31 57 -22 168 -32 255 -22 63 6 98 17 164 51 142 71 149 75 179 120 17 23 42 49 56 56 14 8 26 23 26 34 0 16 -6 19 -37 15 -25 -3 -48 2 -68 13 -52 30 -196 73 -319 94 -98 17 -95 17 -151 4z"/>
<path d="M3510 1043 c-95 -11 -174 -30 -258 -59 -53 -19 -123 -37 -154 -41 -80 -8 -92 -26 -46 -67 19 -17 38 -41 42 -52 3 -12 16 -26 29 -32 26 -14 52 -30 92 -58 96 -66 188 -88 334 -81 149 7 376 78 420 131 32 39 -30 108 -168 185 -88 50 -219 83 -291 74z"/>
</g>
<g id="layer121" fill="#8eb1fc" stroke="none">
<path d="M1410 1034 c-124 -38 -155 -52 -195 -85 -25 -21 -54 -41 -63 -44 -16 -5 -52 -69 -52 -92 0 -6 -5 -13 -12 -15 -19 -7 -1 -38 22 -38 11 0 19 -5 18 -10 -5 -18 195 -86 287 -99 72 -10 185 1 246 25 24 10 69 37 100 61 30 24 59 43 63 43 15 0 47 44 42 57 -3 8 11 21 37 34 l42 22 -43 12 c-23 7 -48 18 -55 23 -17 14 -167 69 -252 92 -65 18 -151 24 -185 14z"/>
<path d="M3425 1024 c-108 -31 -132 -39 -175 -57 -25 -11 -53 -28 -63 -38 -10 -11 -29 -19 -42 -19 -31 0 -39 -14 -23 -42 7 -13 11 -28 10 -33 -5 -24 93 -101 186 -147 65 -32 70 -33 197 -33 122 0 135 2 220 34 50 18 100 35 113 38 13 3 26 12 29 20 3 8 16 19 29 24 27 10 31 27 9 35 -8 4 -15 17 -15 30 0 14 -6 24 -15 24 -8 0 -21 12 -29 28 -34 66 -222 153 -329 151 -28 0 -74 -7 -102 -15z"/>
</g>
<g id="layer122" fill="#d2d2d2" stroke="none">
<path d="M1380 3388 c-63 -3 -297 -9 -520 -13 -702 -11 -761 -13 -767 -19 -4 -3 83 -6 193 -6 1439 0 2683 -9 2700 -18 10 -6 17 -12 14 -12 -68 -12 -217 -22 -425 -30 -143 -5 -339 -14 -435 -19 -171 -10 -333 -19 -495 -27 -95 -4 -170 -24 -170 -44 0 -10 16 -18 45 -23 25 -4 58 -12 74 -17 27 -9 1793 -5 1901 4 43 4 459 24 650 31 33 1 103 5 155 9 140 9 280 16 417 22 67 2 133 9 145 14 21 8 -354 5 -547 -5 -38 -2 -191 -7 -340 -10 -148 -3 -349 -10 -445 -15 -256 -12 -1197 -13 -1205 0 -4 6 10 10 37 11 24 0 113 5 198 9 85 5 242 13 349 19 394 21 551 43 551 77 0 8 -10 18 -23 23 -35 13 -221 30 -412 37 -231 9 -1502 11 -1645 2z"/>
<path d="M6 3351 c-5 -7 -1 -20 7 -29 8 -9 26 -38 39 -63 62 -123 93 -169 113 -167 14 2 36 -21 85 -89 63 -88 138 -207 191 -302 32 -58 96 -159 176 -280 34 -51 60 -98 57 -103 -3 -4 -1 -7 4 -6 9 3 102 -113 172 -211 32 -46 7 -30 -51 33 -112 122 -379 476 -379 504 0 5 -7 15 -15 22 -8 7 -40 56 -71 109 -31 53 -60 103 -65 111 -5 8 -20 37 -34 63 -35 66 -51 57 -47 -24 9 -159 64 -325 158 -474 46 -75 326 -377 444 -480 25 -22 79 -72 120 -111 41 -39 122 -114 179 -165 57 -52 135 -124 174 -161 38 -38 73 -68 78 -68 18 0 -11 206 -51 377 -34 139 -91 297 -155 423 -147 292 -439 572 -783 751 -53 28 -108 64 -122 79 -35 38 -120 147 -120 153 0 2 -11 17 -25 33 -13 16 -35 42 -48 58 -17 21 -26 26 -31 17z"/>
<path d="M4963 3249 c11 -7 23 -7 35 0 14 9 11 10 -18 10 -29 0 -32 -1 -17 -10z"/>
<path d="M3170 3127 c-42 -15 -70 -58 -54 -84 28 -46 139 -70 175 -37 15 14 18 12 28 -16 10 -30 9 -31 -12 -23 -12 4 -51 8 -87 7 -80 -1 -112 -19 -134 -76 -27 -67 -5 -140 59 -197 52 -46 99 -61 200 -67 116 -6 158 11 163 67 4 44 -14 61 -64 61 -48 0 -63 -15 -40 -41 29 -32 14 -55 -34 -48 -49 6 -94 38 -126 89 -38 60 -41 98 -11 133 22 26 27 28 58 19 23 -7 46 -26 73 -62 37 -50 40 -52 87 -52 27 0 49 3 49 7 0 15 -53 181 -70 218 -44 97 -152 139 -260 102z m108 -49 c19 -16 15 -25 -14 -31 -52 -10 -81 12 -52 41 12 12 43 7 66 -10z"/>
<path d="M764 3085 c-19 -12 -20 -20 -13 -62 4 -26 8 -53 8 -59 1 -7 21 -39 46 -73 25 -34 39 -61 32 -61 -21 0 -42 18 -42 37 0 25 -47 40 -80 25 -20 -9 -26 -18 -23 -38 4 -38 57 -64 133 -64 57 -1 62 -3 100 -41 84 -85 176 -126 265 -117 32 3 35 5 32 33 -2 17 -12 55 -22 85 -9 30 -30 96 -45 145 -47 157 -38 145 -112 145 -73 0 -70 12 -31 -113 24 -74 20 -87 -26 -92 -21 -3 -32 6 -56 41 -16 25 -30 49 -30 55 0 5 -7 21 -16 34 -9 14 -16 48 -17 80 l-2 55 -40 0 c-22 0 -50 -7 -61 -15z m296 -317 c6 -24 13 -49 15 -56 7 -20 -51 25 -75 58 -19 27 -19 29 -3 33 45 12 52 7 63 -35z"/>
<path d="M1180 3031 c0 -6 4 -20 9 -33 6 -13 19 -57 31 -98 12 -41 27 -89 33 -107 l11 -32 120 1 c67 0 127 5 134 11 19 15 14 55 -7 67 -30 15 -72 12 -87 -7 -10 -14 -17 -15 -30 -8 -18 11 -31 43 -62 145 l-19 65 -67 3 c-39 2 -66 -1 -66 -7z"/>
<path d="M1550 3027 c-22 -11 -25 -19 -24 -67 0 -30 8 -80 17 -110 10 -33 13 -56 7 -58 -18 -6 -10 -32 9 -32 15 0 21 -10 26 -40 7 -40 7 -40 53 -40 26 0 58 -3 71 -7 25 -6 26 0 5 70 -4 12 0 17 15 17 12 0 21 7 21 15 0 10 -10 15 -30 15 -22 0 -30 5 -30 18 0 10 -9 43 -20 75 -11 31 -20 66 -20 77 0 28 26 25 56 -5 14 -14 29 -25 33 -25 10 0 28 -49 67 -177 l28 -93 48 -1 c26 -1 54 -2 60 -3 19 -2 21 31 5 73 l-15 37 58 -4 c101 -7 135 40 95 135 -30 70 -14 98 33 58 31 -26 39 -43 68 -137 l17 -58 64 0 65 0 -7 33 c-4 17 -16 58 -26 91 -21 65 -24 96 -10 96 12 0 61 -63 61 -77 0 -5 9 -40 21 -76 l21 -67 65 0 c76 0 75 -17 15 177 -13 40 0 51 31 30 45 -30 67 -58 77 -100 6 -23 16 -56 23 -74 l11 -32 120 1 c67 0 127 5 134 11 19 15 14 55 -7 67 -30 15 -72 12 -87 -7 -10 -14 -17 -15 -30 -8 -18 11 -31 43 -62 145 l-19 65 -63 3 c-41 2 -66 -1 -71 -9 -5 -9 -15 -9 -39 0 -44 15 -89 14 -122 -3 -24 -13 -32 -13 -59 1 -38 19 -121 13 -147 -10 -17 -15 -19 -15 -35 0 -26 26 -142 31 -167 8 -25 -22 -26 -74 -4 -139 21 -61 7 -82 -31 -46 -14 13 -25 29 -25 35 0 7 -11 46 -24 86 l-24 74 -67 3 c-58 3 -67 1 -62 -13 8 -19 6 -19 -29 0 -35 18 -110 19 -144 2z"/>
<path d="M3490 3031 c0 -6 4 -20 9 -33 6 -13 19 -57 31 -98 12 -41 27 -89 33 -107 l11 -32 120 1 c67 0 127 5 134 11 19 15 14 55 -7 67 -30 15 -72 12 -87 -7 -10 -14 -17 -15 -30 -8 -18 11 -31 43 -62 145 l-19 65 -67 3 c-39 2 -66 -1 -66 -7z"/>
<path d="M3849 3011 c-33 -34 -38 -77 -15 -132 17 -41 71 -94 109 -108 36 -14 277 -15 277 -1 0 5 -6 27 -14 47 -29 78 -46 144 -41 153 20 32 88 -35 105 -102 6 -24 16 -57 23 -75 l11 -32 124 0 c95 0 130 4 148 16 29 19 31 58 8 124 -20 55 -14 85 13 70 51 -30 75 -60 88 -111 8 -30 12 -65 9 -77 -5 -17 -2 -23 9 -23 10 0 18 -13 23 -35 3 -19 13 -36 23 -39 26 -8 110 -11 116 -4 4 3 2 22 -3 42 -9 32 -8 36 9 36 10 0 19 7 19 15 0 9 -9 15 -25 15 -14 0 -27 6 -29 13 -2 6 -13 44 -25 82 -27 87 -27 98 -1 90 28 -9 26 16 -3 43 -32 30 -102 30 -134 0 -22 -21 -23 -21 -43 -3 -31 28 -144 34 -170 10 -25 -22 -26 -74 -4 -139 21 -61 7 -82 -31 -46 -14 13 -25 29 -25 35 0 7 -11 46 -24 86 l-24 74 -66 3 c-37 2 -66 -1 -66 -6 0 -6 -15 -7 -37 -1 -59 13 -105 11 -125 -8 -18 -16 -21 -16 -47 0 -17 10 -50 17 -81 17 -44 0 -56 -4 -81 -29z m164 -51 c18 -14 30 -38 38 -78 17 -76 17 -77 -6 -74 -48 7 -111 125 -84 158 15 19 21 18 52 -6z"/>
</g>
<g id="layer123" fill="#a9d8fd" stroke="none">
<path d="M1414 1011 c-50 -12 -123 -53 -129 -72 -3 -9 -12 -20 -20 -23 -36 -13 -86 -136 -56 -136 5 0 14 -14 21 -31 23 -54 130 -91 265 -90 107 1 168 23 224 83 65 68 84 158 34 158 -6 0 -31 17 -54 39 -61 56 -203 92 -285 72z"/>
<path d="M3490 1014 c-70 -8 -140 -36 -177 -71 -21 -19 -50 -41 -64 -48 -44 -23 -43 -42 5 -115 58 -88 104 -112 225 -118 92 -5 215 13 232 35 6 7 19 13 29 13 19 0 36 19 63 67 19 34 14 60 -15 81 -10 7 -18 20 -18 28 0 8 -11 19 -24 25 -13 6 -26 19 -29 28 -5 21 -104 69 -153 74 -22 3 -55 3 -74 1z"/>
</g>
<g id="layer124" fill="#dfe0e2" stroke="none">
<path d="M1540 3387 c-3 -3 -236 -7 -518 -10 -282 -3 -516 -7 -519 -11 -4 -3 -43 -7 -87 -7 l-81 -2 100 -8 c55 -5 134 -7 175 -4 41 3 426 5 855 4 429 -1 908 -1 1065 0 310 1 496 -8 493 -24 -4 -15 -98 -23 -373 -34 -135 -5 -328 -14 -430 -20 -102 -6 -282 -15 -400 -21 -189 -10 -267 -18 -333 -37 -37 -10 4 -30 90 -43 68 -11 259 -14 848 -14 712 0 903 4 1265 24 80 5 231 11 335 14 105 3 204 8 220 10 17 3 98 8 180 11 311 12 406 18 410 25 5 8 -311 3 -485 -7 -354 -20 -1179 -38 -1700 -38 -334 1 -413 5 -397 21 3 3 97 10 209 15 478 21 870 49 941 68 46 11 51 15 44 35 -6 15 -31 21 -172 37 -91 10 -1726 26 -1735 16z"/>
<path d="M115 3360 c-3 -5 1 -10 10 -10 9 0 13 5 10 10 -3 6 -8 10 -10 10 -2 0 -7 -4 -10 -10z"/>
<path d="M11 3345 c0 -5 30 -64 68 -130 53 -92 73 -119 87 -118 23 3 81 -72 176 -227 90 -145 247 -401 261 -425 7 -10 18 -25 25 -33 6 -7 17 -22 23 -33 6 -11 38 -57 73 -102 34 -45 91 -120 126 -167 36 -47 73 -94 82 -104 33 -36 18 -40 -18 -5 -31 29 -168 185 -228 259 -76 94 -314 426 -327 456 -2 5 -30 53 -62 106 -32 54 -63 111 -68 128 -6 16 -16 30 -23 30 -14 0 -4 -170 14 -240 6 -25 14 -56 17 -70 12 -50 104 -217 159 -290 83 -109 333 -355 779 -765 77 -71 142 -133 143 -137 2 -4 9 -8 16 -8 9 0 12 13 10 41 -3 53 -32 214 -44 255 -6 17 -10 39 -10 49 0 10 -4 32 -10 49 -45 146 -65 207 -81 243 -11 24 -19 45 -19 48 0 11 -56 124 -85 170 -17 28 -34 57 -37 65 -17 46 -201 252 -313 351 -111 97 -277 209 -422 284 -88 46 -94 51 -171 154 -96 127 -141 180 -141 166z"/>
<path d="M4973 3253 c4 -3 10 -3 14 0 3 4 0 7 -7 7 -7 0 -10 -3 -7 -7z"/>
<path d="M3177 3130 c-43 -13 -57 -29 -57 -66 0 -46 36 -69 108 -69 40 0 57 5 67 18 12 16 14 15 24 -14 6 -18 10 -34 8 -35 -2 -2 -21 1 -42 7 -46 13 -128 4 -161 -17 -12 -9 -30 -35 -39 -59 -16 -40 -16 -47 -1 -98 23 -78 85 -131 178 -152 93 -21 160 -19 208 5 35 18 40 25 40 54 0 50 -33 68 -94 53 -26 -7 -27 -9 -12 -26 20 -22 21 -50 1 -57 -58 -22 -176 65 -189 140 -22 118 86 143 152 36 31 -49 32 -50 82 -50 27 0 50 2 50 4 0 2 -7 23 -15 47 -9 24 -20 64 -26 88 -15 67 -45 126 -79 155 -50 41 -134 57 -203 36z m99 -51 c16 -17 16 -22 4 -29 -18 -11 -27 -12 -57 -4 -25 7 -29 24 -11 42 18 18 43 15 64 -9z"/>
<path d="M767 3082 c-10 -10 -17 -32 -17 -49 0 -37 36 -117 74 -167 25 -33 25 -36 8 -36 -22 0 -45 23 -34 34 4 4 -2 14 -12 22 -43 31 -104 6 -93 -38 9 -36 62 -58 136 -58 38 0 63 -5 68 -13 15 -24 118 -103 158 -121 46 -21 159 -34 168 -19 4 6 0 30 -7 54 -19 59 -93 298 -101 327 -6 20 -13 22 -71 22 -35 0 -64 -1 -64 -2 0 -2 14 -46 30 -98 16 -52 28 -95 27 -97 -2 -1 -22 -5 -44 -7 -38 -5 -44 -3 -57 22 -62 111 -90 197 -74 226 8 14 3 16 -35 16 -30 0 -49 -6 -60 -18z m298 -323 c9 -28 14 -53 10 -57 -3 -4 -27 15 -53 42 -42 45 -44 50 -27 57 43 16 53 10 70 -42z"/>
<path d="M1195 2993 c8 -27 27 -90 42 -140 l27 -93 63 0 c35 0 63 4 63 10 0 6 9 6 26 0 39 -15 79 -12 97 8 23 25 21 38 -5 56 -31 22 -64 20 -81 -4 -14 -20 -14 -20 -38 -1 -16 12 -29 39 -38 73 -7 29 -20 72 -28 96 l-16 42 -63 0 -63 0 14 -47z"/>
<path d="M1550 3028 c-35 -19 -38 -74 -8 -162 17 -50 20 -70 11 -73 -15 -5 -5 -33 12 -33 7 0 16 -13 20 -29 9 -40 20 -47 88 -54 52 -5 58 -4 52 11 -3 9 -9 29 -12 45 -5 23 -2 27 16 27 12 0 21 6 21 15 0 10 -10 15 -29 15 -25 0 -30 5 -36 33 -4 17 -15 56 -26 85 -28 76 -8 95 49 47 17 -14 35 -25 41 -25 6 0 11 -7 11 -16 0 -10 9 -42 19 -73 11 -31 28 -84 38 -119 14 -50 22 -62 35 -58 10 2 34 0 55 -5 21 -4 42 -4 47 1 4 4 1 31 -7 59 l-15 51 47 -6 c32 -4 59 -1 85 10 l39 16 -7 49 c-3 27 -13 63 -22 80 -28 57 16 77 58 26 17 -20 35 -63 59 -142 l12 -43 64 0 c34 0 63 2 63 5 0 7 -27 105 -44 157 -9 28 -11 50 -6 53 19 12 57 -26 69 -68 6 -23 19 -66 28 -94 l17 -53 63 0 c40 0 63 4 63 11 0 11 -22 81 -47 153 -8 23 -10 43 -5 48 12 12 58 -6 65 -26 4 -9 12 -16 19 -16 8 0 23 -34 37 -85 l24 -85 64 0 c34 0 63 4 63 10 0 6 9 6 26 0 39 -15 79 -12 97 8 23 25 21 38 -5 56 -31 22 -64 20 -81 -4 -14 -20 -14 -20 -38 -1 -16 12 -29 39 -38 73 -7 29 -20 72 -28 96 l-16 42 -63 0 c-52 0 -62 -3 -58 -15 7 -18 9 -18 -41 0 -51 18 -93 19 -127 1 -24 -13 -32 -13 -59 1 -38 19 -121 13 -147 -10 -17 -15 -19 -15 -35 0 -11 11 -38 18 -79 21 -54 3 -66 1 -85 -18 -27 -25 -28 -39 -7 -120 16 -63 11 -86 -17 -75 -22 8 -34 33 -63 128 l-27 87 -63 0 c-61 0 -64 -1 -58 -22 5 -23 5 -23 -17 -4 -27 25 -125 33 -161 14z"/>
<path d="M3505 2993 c8 -27 27 -90 42 -140 l27 -93 63 0 c35 0 63 4 63 10 0 6 9 6 26 0 39 -15 79 -12 97 8 23 25 21 38 -5 56 -31 22 -64 20 -81 -4 -14 -20 -14 -20 -38 -1 -16 12 -29 39 -38 73 -7 29 -20 72 -28 96 l-16 42 -63 0 -63 0 14 -47z"/>
<path d="M3848 3010 c-26 -27 -30 -36 -25 -69 7 -58 35 -108 80 -144 l41 -32 137 -3 137 -3 -8 33 c-5 18 -18 62 -30 97 -30 94 -14 116 46 63 23 -21 36 -47 54 -109 l24 -83 115 2 c72 0 129 6 150 14 33 14 33 15 27 63 -3 27 -13 63 -22 80 -12 25 -13 35 -4 46 38 46 140 -93 125 -172 -4 -24 -2 -33 8 -33 8 0 21 -17 29 -38 14 -35 17 -38 61 -40 25 -1 51 -3 59 -4 14 -3 15 10 3 55 -6 23 -4 27 14 27 31 0 26 28 -6 32 -22 2 -29 10 -36 38 -5 19 -15 52 -23 73 -21 55 -19 80 6 72 28 -9 26 16 -5 45 -20 19 -32 22 -70 18 -25 -3 -55 -14 -65 -23 -19 -17 -21 -17 -41 1 -14 12 -40 19 -82 22 -53 3 -65 0 -84 -18 -27 -25 -28 -39 -7 -120 16 -63 11 -86 -17 -75 -22 8 -34 33 -63 128 l-27 87 -64 0 c-57 0 -64 -2 -58 -17 6 -15 4 -16 -8 -6 -27 22 -113 27 -151 9 -31 -15 -38 -15 -71 -1 -61 25 -114 20 -149 -15z m155 -39 c18 -7 29 -24 40 -58 27 -86 29 -103 12 -109 -36 -14 -113 102 -101 151 7 28 13 29 49 16z"/>
</g>
<g id="layer125" fill="#cef6fc" stroke="none">
<path d="M1437 976 c-26 -7 -56 -21 -66 -30 -43 -39 -76 -146 -52 -171 5 -6 14 -26 20 -46 10 -32 18 -38 56 -48 56 -14 143 -14 183 0 21 7 35 22 46 49 8 21 20 41 26 45 14 9 13 82 -2 92 -7 4 -21 25 -30 45 -11 25 -31 44 -57 58 -46 23 -58 24 -124 6z"/>
<path d="M3443 971 c-31 -14 -48 -31 -60 -58 -10 -21 -24 -42 -30 -46 -23 -15 -15 -87 15 -134 30 -49 64 -63 147 -63 69 0 104 12 144 49 44 41 47 92 11 169 -19 40 -34 57 -65 72 -63 30 -113 34 -162 11z"/>
</g>
<g id="layer126" fill="#fcfdfd" stroke="none">
<path d="M1325 3380 c-280 -4 -526 -9 -545 -11 -36 -3 1438 -17 1940 -17 262 0 330 -7 330 -31 0 -20 -3 -20 -500 -43 -129 -6 -325 -14 -435 -18 -435 -17 -635 -36 -635 -59 0 -4 28 -12 63 -20 90 -19 1172 -26 1677 -11 668 19 1194 43 1350 60 70 7 68 8 -30 4 -58 -2 -238 -8 -400 -14 -162 -5 -439 -15 -615 -21 -412 -14 -1289 -9 -1306 8 -9 9 -7 13 12 17 22 4 288 18 704 36 301 13 472 33 497 58 19 19 -21 30 -162 45 -178 20 -1167 28 -1945 17z"/>
<path d="M20 3335 c1 -6 12 -28 25 -50 13 -22 32 -56 42 -75 35 -73 64 -112 78 -106 12 4 28 -10 78 -74 24 -30 136 -207 148 -233 7 -15 16 -27 20 -27 4 0 12 -12 18 -27 6 -16 38 -71 71 -123 33 -52 76 -121 95 -153 20 -33 42 -66 50 -74 8 -8 15 -17 15 -21 0 -4 12 -20 26 -37 14 -16 40 -50 57 -75 17 -25 33 -47 37 -50 3 -3 19 -23 36 -45 16 -22 36 -49 46 -60 154 -189 173 -215 150 -215 -9 0 -156 156 -193 205 -13 17 -30 37 -39 45 -23 23 -126 152 -214 270 -135 182 -252 364 -335 525 l-26 49 -3 -72 c-2 -39 2 -80 8 -91 5 -11 10 -38 10 -60 0 -22 4 -43 10 -46 6 -3 10 -16 10 -29 0 -12 12 -47 26 -77 14 -30 31 -66 37 -80 40 -86 146 -212 332 -396 197 -195 244 -239 461 -438 60 -55 139 -129 176 -164 l68 -64 -6 64 c-3 35 -8 73 -11 84 -5 19 -16 85 -29 180 -3 22 -10 44 -15 50 -5 5 -9 17 -9 26 0 16 -24 104 -40 144 -52 133 -89 219 -113 260 -15 28 -31 58 -34 68 -3 9 -9 17 -14 17 -5 0 -9 5 -9 11 0 38 -251 317 -370 411 -70 54 -220 158 -230 158 -4 0 -10 3 -12 8 -3 8 -52 35 -146 82 -51 25 -74 46 -123 108 -33 42 -65 84 -72 92 -7 8 -26 33 -42 55 -40 55 -45 61 -45 50z"/>
<path d="M3177 3130 c-43 -13 -57 -29 -57 -66 0 -46 36 -69 108 -69 40 0 57 5 67 18 12 16 14 15 24 -14 6 -18 10 -33 9 -35 -2 -1 -27 3 -56 9 -44 9 -61 8 -107 -8 -50 -17 -58 -23 -76 -64 -22 -50 -19 -81 12 -142 27 -55 84 -94 163 -114 133 -33 237 -6 244 64 3 27 -1 33 -29 45 -24 10 -40 11 -61 4 -27 -10 -28 -11 -13 -28 9 -10 15 -27 13 -37 -6 -29 -89 -22 -132 11 -66 50 -96 156 -56 196 42 42 107 16 148 -60 16 -30 24 -35 60 -38 31 -2 44 1 48 12 11 28 -65 233 -100 270 -46 49 -134 68 -209 46z m105 -52 l21 -21 -23 -9 c-37 -13 -74 -6 -78 16 -8 38 46 48 80 14z"/>
<path d="M764 3079 c-30 -33 -9 -110 56 -204 22 -32 27 -45 16 -45 -27 0 -46 12 -46 29 0 38 -48 54 -82 27 -51 -38 21 -96 119 -96 51 -1 62 -4 88 -31 72 -74 181 -130 250 -128 69 1 69 -4 3 212 l-61 197 -63 0 c-35 0 -64 -1 -64 -2 0 -2 14 -45 30 -97 16 -52 29 -96 27 -97 -2 -2 -22 -6 -45 -9 -42 -5 -42 -5 -72 48 -37 65 -71 168 -63 196 5 20 2 21 -36 19 -23 -2 -49 -10 -57 -19z m302 -319 c22 -73 17 -77 -36 -25 -55 54 -58 61 -32 68 41 11 55 2 68 -43z"/>
<path d="M1190 3028 c0 -7 17 -70 38 -140 l37 -128 63 0 c34 0 62 4 62 9 0 4 18 3 39 -2 52 -14 91 2 91 37 0 45 -67 63 -93 25 -12 -17 -19 -19 -35 -10 -19 10 -33 46 -78 204 -4 14 -17 17 -65 17 -40 0 -59 -4 -59 -12z"/>
<path d="M1548 3025 c-35 -20 -36 -52 -6 -154 15 -52 19 -76 11 -78 -15 -5 -5 -33 12 -33 7 0 16 -13 20 -29 3 -16 12 -34 18 -39 11 -8 127 -25 127 -18 0 2 -7 22 -15 45 -14 41 -14 41 10 41 18 0 23 4 19 15 -4 8 -16 15 -28 15 -20 0 -26 11 -49 87 -14 47 -24 90 -21 95 10 16 41 8 64 -17 13 -14 29 -25 35 -25 7 0 29 -60 51 -135 33 -114 42 -135 56 -131 10 2 34 0 55 -5 21 -4 42 -4 46 0 5 5 2 32 -7 61 l-15 52 39 -7 c54 -9 98 2 116 31 15 22 14 29 -5 93 -26 86 -26 91 2 91 37 0 71 -48 98 -137 l24 -83 63 0 c34 0 62 3 62 8 0 4 -14 49 -30 101 -29 93 -30 111 -6 111 24 0 44 -35 72 -127 l29 -93 63 0 c56 0 63 2 58 18 -39 122 -55 187 -48 194 12 12 58 -7 65 -26 4 -9 13 -16 20 -16 9 0 23 -31 38 -85 l23 -85 63 0 c35 0 63 4 63 9 0 4 18 3 39 -2 52 -14 91 2 91 37 0 45 -67 63 -93 25 -12 -17 -19 -19 -35 -10 -19 10 -33 46 -78 204 -7 24 -124 26 -124 1 0 -12 -5 -14 -17 -9 -70 30 -137 30 -166 0 -13 -12 -17 -12 -27 0 -6 7 -36 17 -65 20 -45 6 -61 4 -89 -13 -29 -17 -37 -18 -46 -7 -16 20 -103 29 -145 15 -45 -15 -53 -45 -31 -115 22 -70 21 -95 -4 -95 -27 0 -44 30 -75 133 l-26 87 -61 0 c-59 0 -60 0 -55 -25 4 -23 3 -24 -12 -12 -40 34 -131 45 -173 22z"/>
<path d="M3500 3028 c0 -7 17 -70 38 -140 l37 -128 63 0 c34 0 62 4 62 9 0 4 18 3 39 -2 52 -14 91 2 91 37 0 45 -67 63 -93 25 -12 -17 -19 -19 -35 -10 -19 10 -33 46 -78 204 -4 14 -17 17 -65 17 -40 0 -59 -4 -59 -12z"/>
<path d="M3872 3025 c-18 -8 -37 -26 -42 -41 -23 -58 21 -151 90 -192 42 -26 53 -28 168 -30 93 -2 122 0 122 10 0 7 -11 49 -25 93 -30 96 -31 115 -7 115 40 0 79 -52 103 -137 l24 -83 115 2 c178 2 195 15 161 128 -12 37 -21 73 -21 79 0 22 49 11 66 -13 8 -14 21 -23 28 -20 8 3 19 -21 33 -68 12 -41 18 -74 12 -76 -14 -5 -11 -32 4 -32 8 0 21 -17 29 -38 14 -35 17 -38 61 -40 25 -1 51 -3 59 -4 14 -3 15 10 3 55 -6 23 -4 27 15 27 29 0 21 23 -11 30 -20 5 -28 20 -50 90 -14 47 -24 89 -22 93 3 4 13 5 24 2 26 -9 25 17 -2 41 -31 28 -115 27 -139 -3 -17 -22 -18 -22 -35 -3 -22 24 -103 35 -150 20 -45 -15 -53 -45 -31 -115 22 -70 21 -95 -4 -95 -27 0 -44 30 -75 133 l-26 87 -60 0 c-48 0 -59 -3 -59 -16 0 -14 -3 -14 -15 -4 -24 20 -140 19 -160 -1 -15 -15 -19 -15 -53 2 -43 22 -85 24 -130 4z m131 -54 c19 -7 30 -26 47 -76 23 -69 21 -95 -6 -95 -40 0 -107 121 -91 165 7 17 16 19 50 6z"/>
<path d="M1428 898 c-38 -31 -29 -85 23 -141 30 -31 46 -29 92 12 30 27 30 43 4 103 -15 36 -86 51 -119 26z"/>
<path d="M3466 897 c-12 -9 -20 -31 -23 -64 -5 -46 -3 -52 18 -64 13 -6 27 -16 30 -21 8 -12 63 -16 66 -5 1 4 12 16 24 26 19 16 21 23 15 73 -6 46 -11 57 -29 62 -37 10 -82 7 -101 -7z"/>
</g>


</svg>